<?xml version="1.0" encoding="utf-8"?>
<svg version="1.1" id="Logo" xmlns="http://www.w3.org/2000/svg" xmlns:xlink="http://www.w3.org/1999/xlink" x="0px" y="0px"
	 viewBox="0 0 1024 1024" style="enable-background:new 0 0 1024 1024;" xml:space="preserve">
<style type="text/css">
	.st0{fill:url(#SVGID_1_);}
	.st1{fill:#00ADEE;}
	.st2{fill:url(#SVGID_2_);}
	.st3{fill:#323031;}
	.st4{fill:#FFFFFF;}
</style>
<g>
	<g>
		<radialGradient id="SVGID_1_" cx="474.9969" cy="521.7852" r="530.8687" gradientUnits="userSpaceOnUse">
			<stop  offset="0.25" style="stop-color:#FFFFFF"/>
			<stop  offset="1" style="stop-color:#929497"/>
		</radialGradient>
		<path class="st0" d="M293.8,805.3c-46,0-87.3-7.5-122.8-22.4C135.6,768,105,745.5,80,715.8c-43.6-52.1-65.8-118.5-65.8-197.6
			c0-78.2,20.4-147.1,60.7-204.8c21.8-30.7,46.7-54,74-69.3c27.3-15.2,57.8-23,90.8-23c72,0,128.2,16.8,167.2,49.8
			c33.2,28.3,50,62.9,50,102.8c0,28.6-8.6,52.8-25.4,72.1c-18.5,20.9-41.4,31-70.1,31c-32,0-57.9-10-77.1-29.7l-0.1-0.1
			c-17.7-17.2-26.7-38.3-26.7-62.7c0-23.4,8.2-43.5,24.4-59.7c8.2-8,18-14.3,29.3-18.8c-13.8,10.3-20.8,24.1-20.8,41.3
			c0,14.5,5.8,27.2,17.1,37.7c11.2,10.4,25.8,15.7,43.2,15.7c34,0,51.9-17.5,51.9-50.6c0-28.8-13.3-55.4-39.6-79.2
			c-30.7-27.7-69.4-41.7-115-41.7c-60.2,0-110.1,27.3-148.3,81.3c-35.9,49.3-54.1,108.5-54.1,175.7c0,31.8,4.2,62.2,12.3,90.5
			l9.4,32.4v-63.4c0-44,9.2-82.1,27.5-113.1c18-30.6,40.2-45.5,68.1-45.5c29.3,0,47.2,11.9,54.7,36.3c8.9,29.3,16.7,54.6,23.6,77.5
			l0.2,0.5l0.3,0.5c17.1,29.2,51.7,44,103,44c54.3,0,96.6-15.3,125.8-45.4c25.1-26.1,37.8-59.8,37.8-100.3c0-11.3-1-22.3-2.9-33
			c7.7,21,11.5,43.3,11.5,66.8c0,50.2-17.2,93.6-51.1,129c-36.4,37.9-85.3,57.1-145.5,57.1c-49.4,0-83.6-12.2-101.8-36.1
			c-13-16.8-19.5-43.5-19.5-79.2c0-5.6,0.3-13.7,0.8-24.1c0.5-11,0.8-18.5,0.8-23c0-21.8-2.7-37.2-8.2-47.2
			c-7.4-13.7-20.6-20.7-39.2-20.7c-22.1,0-41.8,15.8-58.6,47C78.3,466.7,70,501.6,70,540.2c0,53.2,16.3,97.6,48.4,131.8
			c39.3,41.4,98.3,62.3,175.3,62.3c91.7,0,162.7-26.6,211-79.1c41.7-45.3,62.8-103.7,62.8-173.5c0-38.9-7-76.7-20.9-112.3
			c-5.7-14.6-12.2-28.1-19.4-40.4c13.7,16.3,25.4,35,34.9,55.9c17.4,38.2,26.2,80.5,26.2,125.7c0,39.3-6.1,76.2-18.2,109.6
			c-12,33.4-30.3,64.2-54.4,91.8c-27,31-59.3,54.5-96.1,70C382.9,797.4,340.5,805.3,293.8,805.3z"/>
		<path class="st1" d="M207.6,228.6c-44,9.8-81.4,36.2-111.7,78.9c-36.5,50.2-55,110.3-55,178.5c0,32.3,4.2,63.1,12.5,91.8
			l18.8,64.8v-45.1c7.8,29.7,22.1,55.7,42.7,77.7l0,0l0,0c40.2,42.3,100.3,63.8,178.8,63.8c93.1,0,165.3-27.1,214.6-80.6
			c42.5-46.2,64.1-105.7,64.1-176.8c0-32.3-4.8-63.9-14.2-94.1c16.9,37.4,25.4,78.8,25.4,123c0,38.7-6,75-17.9,107.9
			c-11.8,32.8-29.8,63.2-53.5,90.3c-26.5,30.4-58.3,53.5-94.4,68.7c-36.3,15.3-78,23-124.2,23c-45.4,0-86.1-7.4-121-22.1
			c-34.6-14.5-64.6-36.7-89.1-65.7c-21.4-25.6-37.7-54.8-48.4-86.9C24.5,593.5,19,557.3,19,518.2c0-38.7,5-75.3,15-108.8
			c9.9-33.4,25-64.8,44.8-93.2c21.4-30.1,45.7-52.9,72.5-67.8C168.8,238.6,187.6,232,207.6,228.6 M295.7,229.8
			c13.9,2,26.9,4.9,39.1,8.5c27,8.1,50.2,20.3,69.1,36.3c16.1,13.8,28.4,29.1,36.4,45.5c7.9,16.3,12,34.4,12,53.6
			c0,27.8-7.9,50.3-24.2,68.9c-17.5,19.8-39.3,29.4-66.5,29.4c-15.5,0-29.5-2.4-41.8-7.1c-12.1-4.7-22.8-11.8-31.9-21.1l-0.1-0.1
			l-0.1-0.1c-17-16.5-25.2-35.9-25.2-59.3c0-22.4,7.5-40.8,23-56.3c1.7-1.6,3.4-3.2,5.2-4.6c-3.2,7.1-4.8,15-4.8,23.6
			c0,15.9,6.3,29.8,18.7,41.2c12.2,11.3,27.8,17,46.4,17c36.6,0,56.7-19.7,56.7-55.4c0-30.2-13.8-58-41.2-82.7
			C346,249,322.4,236.4,295.7,229.8 M186,395.1c3.7,1.3,7.1,2.9,10,4.9c8.1,5.4,13.7,13.5,17.1,24.6c9,29.3,16.7,54.7,23.6,77.5
			l0.3,1.1l0.6,1c18,30.8,54,46.4,107.1,46.4c55.7,0,99.2-15.8,129.3-46.9c21.3-22.1,34-49.5,37.9-81.7c0.2,3.9,0.3,7.9,0.3,11.8
			c0,24.5-4.2,47.5-12.4,68.3c-8.2,20.8-20.8,40.1-37.3,57.3c-17.7,18.4-38.6,32.4-62,41.6c-23.6,9.3-50.5,14-80.1,14
			c-47.8,0-80.8-11.5-98-34.2l0,0l0,0c-12.3-15.9-18.5-41.6-18.5-76.2c0-5.5,0.3-13.5,0.7-23.9c0.5-11.1,0.8-18.7,0.8-23.3
			c0-22.6-2.9-38.8-8.8-49.5C194.2,403.7,190.8,399.1,186,395.1 M239.8,216.4c-67.9,0-124.2,31.4-168.8,94.3
			C30,369.5,9.5,438.6,9.5,518.2c0,80.6,22.3,147.5,66.9,200.7c51.2,60.8,123.6,91.2,217.4,91.2c95.3,0,170.5-31.7,225.8-95
			c49.1-56.3,73.7-124.4,73.7-204.5c0-46.1-8.9-88.7-26.6-127.7c-18.8-41-45.1-73.2-79.1-96.5c22.8,21.3,41.1,49.5,54.7,84.8
			c13.7,35.2,20.5,72.1,20.5,110.6c0,68.9-20.5,125.7-61.6,170.3c-47.6,51.7-116.8,77.5-207.5,77.5c-76,0-133.3-20.3-171.8-60.8
			c-31.4-33.4-47.1-76.3-47.1-128.5c0-38,8-71.8,23.9-101.5c16-29.6,34.1-44.5,54.4-44.5c16.7,0,28.4,6.1,35,18.2
			c5.1,9.1,7.6,24.1,7.6,44.8c0,4.6-0.3,12.2-0.8,22.8c-0.5,10.6-0.8,18.8-0.8,24.3c0,37,6.8,64.4,20.5,82.1
			c19.3,25.4,54.5,38,105.7,38c61.8,0,111.5-19.5,149-58.5c35-36.5,52.5-80.6,52.5-132.3c0-45.6-13.9-86.4-41.8-122.4
			c15.7,26.8,23.6,56.3,23.6,88.6c0,39.4-12.2,71.7-36.5,97c-28.4,29.3-69.2,43.9-122.4,43.9c-49.7,0-82.6-13.9-98.8-41.6
			c-7.6-25.2-15.5-51.1-23.6-77.5c-8.1-26.5-27.9-39.7-59.3-39.7c-29.4,0-53.5,16-72.2,47.9C72,461.9,62.7,500.5,62.7,545.6
			c0,9.6,0,19.5,0,29.6c-8.1-27.9-12.2-57.6-12.2-89.1c0-66.5,17.7-124.2,53.2-172.9c37.5-52.8,85.6-79.2,144.4-79.2
			c44.6,0,81.8,13.5,111.7,40.5c25.3,22.9,38,48.1,38,75.6c0,30.5-15.7,45.8-47.1,45.8c-16.2,0-29.5-4.8-39.9-14.4
			c-10.4-9.6-15.6-21-15.6-34.2c0-28.4,21-46.6,63.1-54.7c-34,0.5-60.6,10.1-79.8,28.9c-17.2,17.2-25.8,38.3-25.8,63.1
			c0,25.8,9.4,47.9,28.1,66.1c20.3,20.8,47.1,31.2,80.6,31.2c29.9,0,54.5-10.9,73.7-32.7c17.7-20.3,26.6-45.3,26.6-75.3
			c0-41.5-17.2-77-51.7-106.4C370,233.4,313.3,216.4,239.8,216.4L239.8,216.4z"/>
	</g>
	<g>
		<radialGradient id="SVGID_2_" cx="476.8883" cy="521.7252" r="531.0107" gradientUnits="userSpaceOnUse">
			<stop  offset="0.25" style="stop-color:#FFFFFF"/>
			<stop  offset="1" style="stop-color:#929497"/>
		</radialGradient>
		<path class="st2" d="M883,800.5c-50.7,0-101.2-40.9-150.2-121.6c-49-79.9-73.8-159.7-73.8-237c0-48.2,11.9-86,35.3-112.4
			c12.8-14.2,28.9-24.8,48.1-31.5c-43.1,21.8-64.8,62.3-64.8,121.1c0,63.5,22.9,131.1,68,201c22.6,34.9,44.5,61.6,65.1,79.2
			c21.1,18,41.6,27.2,61,27.2c36.7,0,69.1-24.6,96.5-73.1c24.9-44.1,38.4-96,40.3-154.6c0.8,13.6,1.3,28.1,1.3,43.5
			c0,69.5-9.6,128.2-28.5,174.5c-11.3,28-25.4,49.3-41.8,63.1C923.3,793.6,904.3,800.5,883,800.5z M617,800.5
			c-32,0-61-6.4-86.2-19.1c-25.2-12.6-47.3-31.9-65.7-57.3c-33.7-46.1-50.8-104.7-50.8-174.3c0-32.8,4.1-64.8,12.3-95.5
			c-2.9,16.9-4.4,34.2-4.4,51.8c0,59.5,16.2,111.5,48.1,154.6c32.2,43.6,71.4,65.7,116.4,65.7c42.3,0,51.2-17.9,51.2-32.9
			c0-25.6-9.4-54.2-28.1-85.2c-29.6-50.1-46.7-79.8-50.7-88.3c-17.9-40.2-26.9-85.4-26.9-134.6c0-30.2,6-56.8,17.7-79.2
			c11.7-22.3,29.5-41,53-55.7c34.5-21.2,74.8-31.9,119.9-31.9c37.8,0,71.9,5.5,101.5,16.2c29.5,10.7,55.3,27,76.7,48.5
			c36.9,37.4,55.6,82.5,55.6,134.2c0,35.7-9.6,65.9-28.6,89.8c-20.2,25-47.6,37.7-81.4,37.7c-40,0-73.9-14.3-100.7-42.6
			c-24.8-26.3-37.5-56.9-37.5-91c0-27,9-49.9,26.8-68.1l0.1-0.1c11.5-12.3,26.1-21.8,43.8-28.3c-7.8,5.5-14.7,11.8-20.6,19
			c-12.8,16.1-19.3,34.2-19.3,54c0,20.9,6.7,39.1,19.8,54.1c13.3,15.2,30.5,22.9,51.1,22.9c21.1,0,37.3-6.5,48.1-19.2
			c10.6-12.5,16-31.2,16-55.6c0-38.4-12.8-75.4-38.2-110c-27.7-38.1-61.2-57.5-99.7-57.5c-49.4,0-91.5,11.5-125.1,34.3
			c-43.3,29.7-65.2,74.8-65.2,134c0,42.4,13.3,83.2,39.6,121.3l0.1,0.1l0.1,0.1c23.7,29.6,47.9,60.5,72.1,91.8
			c25.1,37.5,37.9,78.5,37.9,121.9c0,17.6-5,33.3-15,46.5C666.9,791.4,646,800.5,617,800.5z"/>
		<path class="st1" d="M785.4,229.2c13.1,2.6,25.5,6,37.1,10.2c28.8,10.5,54,26.4,75,47.3c18,18.3,31.7,38.5,40.7,60.2
			c9,21.7,13.5,45.4,13.5,70.6c0,34.6-9.3,63.8-27.5,86.7c-19.5,24.2-44.9,35.9-77.7,35.9c-19.4,0-37.4-3.5-53.5-10.3
			c-16.1-6.8-30.8-17.2-43.7-30.8c-12.1-12.8-21.2-26.6-27.2-41.1c-6-14.5-9-30.1-9-46.5c0-26,8.3-47.2,25.4-64.8l0.1-0.1l0.1-0.1
			c3.9-4.2,8.1-8,12.8-11.4c-11.4,15.8-17.2,33.6-17.2,52.8c0,22.1,7.1,41.3,21,57.2c14.3,16.3,32.7,24.6,54.7,24.6
			c31.4,0,68.9-13.8,68.9-79.5c0-39.4-13.2-77.4-39.1-112.8C823.6,255.1,805.4,239,785.4,229.2 M612.6,250.4
			c-1.4,0.9-2.7,1.8-4.1,2.7l0,0l0,0c-44.6,30.6-67.3,77-67.3,137.9c0,43.3,13.6,85.1,40.5,124l0.2,0.3l0.2,0.3
			c23.6,29.5,47.8,60.4,71.9,91.6c12.3,18.3,21.6,37.6,27.7,57.3c6.1,19.8,9.3,40.5,9.3,61.8c0,16.8-4.6,31.1-14.1,43.7
			c-12.9,17.3-32.5,25.8-60,25.8c-31.3,0-59.6-6.2-84.1-18.6c-24.5-12.3-46-31.1-64-55.8c-16.5-22.5-29-48.3-37.3-76.6
			c-8.3-28.5-12.5-60.4-12.5-94.8c0-3.2,0-6.5,0.1-9.7c5.1,46.5,20.9,87.9,47.2,123.4c33.2,44.9,73.6,67.6,120.2,67.6
			c17.4,0,30.4-2.7,39.7-8.4c10.6-6.4,16.2-16.5,16.2-29.3c0-26.4-9.7-55.9-28.7-87.6c-29.5-49.9-46.5-79.4-50.5-87.9
			c-17.6-39.5-26.5-84.1-26.5-132.6c0-29.4,5.8-55.3,17.1-76.9c11.3-21.5,28.6-39.6,51.3-53.8C607.7,253.2,610.1,251.8,612.6,250.4
			 M687.1,347.1c-9.5,20-14.3,44-14.3,72c0,64.4,23.2,132.9,68.8,203.6c22.8,35.3,45,62.3,66,80.2c22,18.8,43.6,28.3,64.1,28.3
			c38.5,0,72.4-25.4,100.7-75.6c14.5-25.6,25.2-53.9,32-84.5c-2.3,56.3-11.6,104.6-27.6,143.8c-11,27.3-24.6,47.9-40.4,61.3
			c-15.5,13.1-32.9,19.4-53.3,19.4c-24,0-48.3-9.7-72.1-28.9c-24.7-19.9-49.6-50.3-74-90.5c-24.3-39.7-42.8-79.5-54.9-118.5
			c-12.1-38.8-18.2-77.8-18.2-115.9c0-23.7,2.9-45,8.7-63.2C676.2,367.1,681,356.6,687.1,347.1 M722.6,213.9
			c-46.1,0-86.9,10.9-122.4,32.6c-48.6,30.4-73,76.7-73,138.9c0,50.1,9.1,95.7,27.4,136.6c4.1,8.6,21,38.2,50.9,88.8
			c18.2,30.4,27.4,57.9,27.4,82.7c0,18.7-15.5,28.1-46.4,28.1c-43.6,0-81.1-21.2-112.5-63.7c-31.4-42.5-47.1-93.1-47.1-151.8
			c0-77.9,28.4-147.5,85.1-208.7c-33.4,29.9-59,68.2-76.8,114.8c-17.2,43.6-25.8,89.4-25.8,137.6c0,71,17.2,130,51.7,177.1
			c38,52.2,89.9,78.3,155.8,78.3c30.4,0,52.9-9.9,67.7-29.6c10.6-14.2,16-30.7,16-49.4c0-44.6-12.9-86.1-38.8-124.7
			c-23.8-30.9-47.9-61.6-72.2-92c-25.8-37.5-38.8-77-38.8-118.6c0-57.8,21-101.1,63.1-130c32.9-22.3,73.7-33.4,122.4-33.4
			c37,0,68.9,18.5,95.8,55.5c24.8,34,37.2,69.7,37.2,107.2c0,46.6-19.8,69.9-59.3,69.9c-19.3,0-35.1-7.1-47.5-21.3
			c-12.4-14.2-18.6-31.2-18.6-50.9c0-18.7,6.1-35.7,18.2-50.9c14.2-17.2,34.2-29.4,60-36.5c-39.5,4.1-69.7,17.2-90.5,39.5
			c-18.8,19.3-28.1,43.1-28.1,71.5c0,35.5,12.9,66.9,38.8,94.3c27.9,29.4,62.6,44.1,104.1,44.1c35.5,0,63.9-13.2,85.1-39.5
			c19.8-24.8,29.6-55.7,29.6-92.7c0-53.2-19-99.1-57-137.6C860.2,235.9,799.7,213.9,722.6,213.9L722.6,213.9z M800.9,284.2
			c-48.1,0-84.8,14.1-110.2,42.2c-24.3,27.4-36.5,65.9-36.5,115.5c0,78.6,24.8,158.4,74.5,239.5C778.9,764,830.3,805.3,883,805.3
			c45.1,0,79.3-28.9,102.6-86.7c19.3-47.1,28.9-105.9,28.9-176.4c0-60.3-6.3-105.9-19-136.8c5.6,25.8,8.4,52.2,8.4,79.1
			c0,63.9-13.3,119.3-39.9,166.5c-26.6,47.1-57.4,70.7-92.4,70.7c-36.5,0-77.2-34.7-122-104.1c-44.8-69.4-67.3-135.6-67.3-198.4
			c0-83.1,44.3-128,133-134.5C810.4,284.3,805.6,284.2,800.9,284.2L800.9,284.2z"/>
	</g>
</g>
<g>
	<path class="st3" d="M516.7,909c-14.4,0-29.1-0.2-43.9-0.5c-16.2-0.4-28.9-0.7-40.2-1c-12.4-0.4-22.4-0.7-30.3-1
		c-10.5-0.5-13.3-0.5-14-0.5c-0.5,0-3.6,0.1-12.4,0.5c-7.6,0.3-16.5,0.7-27.2,1c-8.8,0.3-17.8,0.6-27,0.9l-5.4,0.2
		c-11.4,0.4-20.7,0.5-28.3,0.5c-12.8,0-19.3-3.7-19.3-10.9c0-3.3,1.4-8.8,10.9-8.8c4.8,0,9.9-0.3,15.3-1c5.4-0.7,10.5-1.7,15.3-3.1
		l0.1,0l0.1,0c9.6-1.9,15.9-7.5,19.5-17.1c3.8-10.3,6.7-23.1,8.7-38.1c2.7-22,4.3-53,4.7-92c0.3-39.7,0.5-84.8,0.5-134V259
		c0-15.4-0.2-28-0.5-37.5c-0.4-9.4-0.9-18.3-1.6-26.5c-1.4-17.6-4.8-30.9-10.1-39.5c-5.2-8.3-16.2-14.3-32.7-17.6l-0.2,0l-0.2-0.1
		c-3.9-1.3-9.5-2.1-16.5-2.5c-7.5-0.3-13.4-0.5-18.1-0.5c-9.5,0-10.9-5.5-10.9-8.8c0-7.3,6.5-10.9,19.3-10.9
		c11.6,0,24.1,0.2,37.1,0.5l0.2,0c12.8,0.4,24.9,0.7,36.3,1c12.1,0.4,21.7,0.7,29.2,1c7.4,0.3,12.8,0.5,15,0.5
		c11.7,0,30.7-0.5,56.2-1.6c25.6-1,50.9-1.6,75.2-1.6c32.7,0,60.7,2.5,83.5,7.4c22.7,4.9,42,10.6,57.3,16.8
		c15.5,6.3,27.6,12.9,36.1,19.7c8.6,6.8,14.8,12.1,19,16.4c11.9,11.2,23.9,28.1,35.4,50.2c11.6,22.2,17.5,47.7,17.5,75.8
		c0,37-6.6,71.4-19.5,102.2c-13,30.8-31.2,57.6-54.3,79.6c-23.1,22.1-50.8,39.3-82.3,51.1c-31.4,11.9-66.1,17.9-103.2,17.9h-11
		c-4.6,0-8.3-0.3-11.3-1c-3,0-5.9-0.6-8.5-1.8c-3.4-1.5-5.2-4.3-5.2-8.1c0-5.3,2.7-9,7.6-10.3c4.1-1.1,11.6-1.7,23.1-1.7
		c24.6,0,48.2-4.3,70-12.9c21.8-8.5,40.9-20.5,56.5-35.5c15.7-15,28.3-32.8,37.5-52.9c9.2-20.1,13.8-42.4,13.8-66.2
		c0-8.3-0.5-18.7-1.6-31.1c-1-12.3-3.5-25.8-7.2-40.3c-3.8-14.4-9.5-29.3-17-44.4c-7.5-15-18.2-29.5-31.9-43.1
		c-13.7-13.7-27.7-24.2-41.6-31.3c-14-7.2-27.5-12.4-40.1-15.4c-12.6-3.1-24.2-4.6-34.3-4.6h-25c-8.9,0-17.4,0.5-25.2,1.5
		c-7.7,1-14,2.5-18.6,4.5l-0.1,0c-4.4,1.7-6.7,7.5-6.7,17.4v428.8c0,51.7,0.2,95.6,0.5,134c0.3,39.1,1.9,70,4.7,92
		c1.4,15,4.4,27.7,9.2,37.8c4.5,9.7,14.1,15.3,29.3,17.3l0.1,0c7.5,1.4,16,2.4,25.3,3.1c9.2,0.7,16.4,1,21.2,1
		c9.9,0,10.9,6.2,10.9,8.8C536,905.3,529.5,909,516.7,909z"/>
	<path class="st4" d="M521.9,117.6c32.7,0,60.3,2.4,82.9,7.3c22.6,4.9,41.6,10.4,56.9,16.7c15.3,6.3,27.1,12.7,35.5,19.3
		c8.3,6.6,14.6,12,18.8,16.2c11.8,11.1,23.5,27.6,35,49.6c11.5,21.9,17.2,46.8,17.2,74.6c0,36.9-6.4,70.6-19.3,101.2
		c-12.9,30.6-30.8,56.9-53.7,78.8c-23,21.9-50.1,38.8-81.4,50.6c-31.3,11.8-65.4,17.7-102.2,17.7c-2.8,0-6.4,0-11,0
		c-4.5,0-8.2-0.3-11-1c-2.8,0-5.4-0.5-7.8-1.6c-2.4-1-3.7-3-3.7-5.7c0-4.2,1.9-6.8,5.7-7.8c3.8-1,11.3-1.6,22.4-1.6
		c25,0,48.7-4.3,70.9-13c22.3-8.7,41.4-20.7,57.4-36c16-15.3,28.7-33.2,38.1-53.7c9.4-20.5,14.1-42.9,14.1-67.3
		c0-8.3-0.5-18.8-1.6-31.3s-3.5-26.1-7.3-40.7c-3.8-14.6-9.6-29.6-17.2-44.9c-7.7-15.3-18.4-29.9-32.3-43.8
		c-13.9-13.9-28-24.5-42.3-31.8c-14.3-7.3-27.8-12.5-40.7-15.7c-12.9-3.1-24.5-4.7-34.9-4.7s-18.8,0-25,0c-9.1,0-17.6,0.5-25.6,1.6
		c-8,1-14.4,2.6-19.3,4.7c-5.6,2.1-8.3,8.7-8.3,19.8v428.8c0,50.1,0.2,94.8,0.5,134.1c0.3,39.3,1.9,70.1,4.7,92.3
		c1.4,15.3,4.5,28.2,9.4,38.6c4.9,10.4,15.3,16.7,31.3,18.8c7.6,1.4,16.2,2.4,25.6,3.1c9.4,0.7,16.5,1,21.4,1c5.6,0,8.3,2.1,8.3,6.3
		c0,5.6-5.6,8.3-16.7,8.3c-14.6,0-29.2-0.2-43.8-0.5c-14.6-0.4-28-0.7-40.2-1c-12.2-0.4-22.3-0.7-30.3-1c-8-0.4-12.7-0.5-14.1-0.5
		c-0.7,0-4.9,0.2-12.5,0.5c-7.7,0.3-16.7,0.7-27.1,1c-10.4,0.3-21.2,0.7-32.3,1c-11.1,0.3-20.5,0.5-28.2,0.5
		c-11.1,0-16.7-2.8-16.7-8.3c0-4.2,2.8-6.3,8.3-6.3c4.9,0,10.1-0.3,15.7-1c5.6-0.7,10.8-1.7,15.6-3.1c10.4-2.1,17.6-8.3,21.4-18.8
		c3.8-10.4,6.8-23.3,8.9-38.6c2.8-22.3,4.3-53,4.7-92.3c0.3-39.3,0.5-84,0.5-134.1V420.2c0-40.3,0-73.4,0-99.1c0-25.7,0-46.4,0-62.1
		s-0.2-28.2-0.5-37.6c-0.4-9.4-0.9-18.3-1.6-26.6c-1.4-18.1-4.9-31.6-10.4-40.7c-5.6-9-17.1-15.3-34.4-18.8
		c-4.2-1.4-9.9-2.3-17.2-2.6c-7.3-0.3-13.4-0.5-18.3-0.5c-5.6,0-8.3-2.1-8.3-6.3c0-5.6,5.6-8.3,16.7-8.3c11.8,0,24.2,0.2,37,0.5
		c12.9,0.4,25,0.7,36.5,1c11.5,0.4,21.2,0.7,29.2,1c8,0.4,13,0.5,15.1,0.5c11.8,0,30.6-0.5,56.3-1.6
		C472.5,118.1,497.6,117.6,521.9,117.6 M521.9,112.5c-24.4,0-49.7,0.5-75.3,1.6c-25.5,1-44.4,1.6-56.1,1.6c-2.2,0-7.6-0.2-14.9-0.5
		c-7.6-0.3-17.2-0.7-29.3-1c-11.5-0.3-23.7-0.7-36.5-1c-13.1-0.3-25.6-0.5-37.2-0.5c-6.4,0-11.3,0.9-14.8,2.6c-4.5,2.3-7,6.1-7,10.9
		c0,2.7,1,11.4,13.5,11.4c4.7,0,10.6,0.2,18,0.5c6.8,0.3,12.1,1.1,15.8,2.3l0.3,0.1l0.3,0.1c15.8,3.2,26.3,8.7,31,16.4
		c5.1,8.3,8.3,21.2,9.7,38.4c0.7,8.2,1.2,17.1,1.6,26.4c0.3,9.4,0.5,22,0.5,37.4v62.1v99.1v183.6c0,49.2-0.2,94.3-0.5,134
		c-0.4,38.9-1.9,69.8-4.7,91.7c-2,14.8-4.9,27.4-8.6,37.5c-3.2,8.7-8.9,13.8-17.5,15.5l-0.2,0l-0.2,0.1c-4.6,1.3-9.6,2.3-14.8,3
		c-5.3,0.7-10.4,1-15,1c-12.5,0-13.5,8.7-13.5,11.4c0,4.8,2.5,8.6,7,10.9c3.5,1.8,8.4,2.6,14.8,2.6c7.6,0,16.9-0.2,28.3-0.5l5.2-0.2
		c9.3-0.3,18.3-0.6,27.1-0.9c10.7-0.4,19.6-0.7,27.2-1c8.7-0.4,11.9-0.5,12.3-0.5c0.5,0,3.1,0,13.9,0.5c7.9,0.3,17.8,0.7,30.3,1
		c11.3,0.3,24,0.7,40.2,1c14.8,0.3,29.5,0.5,43.9,0.5c6.4,0,11.3-0.9,14.8-2.6c4.5-2.3,7-6.1,7-10.9c0-2.7-1-11.4-13.5-11.4
		c-4.8,0-11.8-0.3-21-1c-9.2-0.7-17.6-1.7-25-3.1l-0.1,0l-0.1,0c-14.3-1.9-23.2-7-27.3-15.8c-4.6-9.9-7.6-22.3-8.9-36.9l0-0.1l0-0.1
		c-2.7-21.9-4.3-52.8-4.7-91.7c-0.3-38.5-0.5-82.3-0.5-134V175c0-4.9,0.6-13.4,5-15l0.1,0l0.1,0c4.4-1.9,10.4-3.3,17.9-4.3
		c7.7-1,16.1-1.5,24.9-1.5h25c10,0,21.3,1.5,33.7,4.5c12.4,3,25.7,8.1,39.6,15.2c13.7,7,27.5,17.4,41,30.9
		c13.4,13.5,24,27.7,31.4,42.5c7.5,14.9,13.1,29.7,16.8,43.9c3.7,14.3,6.1,27.7,7.2,39.8c1,12.3,1.5,22.7,1.5,30.9
		c0,23.5-4.6,45.4-13.6,65.1c-9.1,19.8-21.5,37.4-37,52.1c-15.4,14.8-34.2,26.5-55.7,34.9c-21.5,8.4-44.8,12.7-69.1,12.7
		c-11.7,0-19.5,0.6-23.8,1.7c-6.1,1.6-9.5,6.3-9.5,12.8c0,4.9,2.4,8.6,6.8,10.5c2.9,1.2,6,1.9,9.2,2c3.1,0.7,6.9,1.1,11.6,1.1h11
		c37.3,0,72.4-6.1,104.1-18.1c31.8-12,59.8-29.4,83.1-51.7c23.4-22.3,41.8-49.4,54.9-80.5c13.1-31.1,19.7-65.8,19.7-103.2
		c0-28.5-6-54.4-17.8-77c-11.7-22.3-23.8-39.4-35.9-50.9c-4.3-4.3-10.6-9.7-19.2-16.5c-8.7-6.9-21-13.6-36.7-20
		c-15.5-6.3-34.9-12-57.7-17C583,115,554.8,112.5,521.9,112.5L521.9,112.5z"/>
</g>
</svg>
