<?xml version="1.0" encoding="utf-8"?>
<svg version="1.1" xmlns="http://www.w3.org/2000/svg" xmlns:xlink="http://www.w3.org/1999/xlink" x="0px" y="0px"
	 viewBox="0 0 648 201" style="enable-background:new 0 0 648 201;" xml:space="preserve">
<style type="text/css">
	.st0{fill:none;stroke:#323031;stroke-width:4;stroke-linecap:square;stroke-miterlimit:10;}
	.st1{fill:#323031;}
	.st2{fill:none;stroke:#323031;stroke-width:4;stroke-miterlimit:10;}
	.st3{fill:url(#SVGID_1_);}
	.st4{fill:#6EC5D4;}
	.st5{fill:url(#SVGID_2_);}
	.st6{fill:#D0D2D3;}
	.st7{fill:#FFFFFF;}
</style>
<g id="Border_1_">
	<line id="Bottom_right_line_1_" class="st0" x1="566" y1="190.2" x2="596.3" y2="190.2"/>
	<g id="GAMES">
		<g>
			<path class="st1" d="M485.8,190.3v6.2c-0.2,0.3-0.5,0.7-1,1s-1.1,0.7-1.9,1s-1.8,0.4-3.1,0.4c-1,0-2-0.2-2.9-0.5
				s-1.6-0.9-2.3-1.6s-1.1-1.6-1.5-2.6s-0.5-2.1-0.5-3.4v-1.3c0-1.3,0.2-2.4,0.5-3.4s0.7-1.8,1.3-2.5s1.3-1.2,2.2-1.6
				s1.8-0.5,2.9-0.5c1.3,0,2.4,0.2,3.3,0.7s1.6,1.1,2.1,1.9s0.8,1.7,1,2.7h-2.3c-0.1-0.6-0.3-1.2-0.6-1.7s-0.7-0.9-1.3-1.2
				s-1.3-0.5-2.1-0.5c-0.8,0-1.5,0.1-2.1,0.4s-1.1,0.7-1.4,1.2s-0.7,1.2-0.8,2s-0.3,1.6-0.3,2.6v1.3c0,1,0.1,1.9,0.3,2.6
				s0.6,1.4,1,2s0.9,1,1.5,1.2s1.3,0.4,2,0.4c0.8,0,1.5-0.1,2-0.2s0.9-0.3,1.2-0.5s0.5-0.4,0.6-0.5v-3.8h-3.9v-1.8H485.8z"/>
			<path class="st1" d="M495.8,183.3l-5.6,15.6h-2.3l6.5-17.1h1.5L495.8,183.3z M500.3,192.5v1.9h-9.6v-1.9H500.3z M500.6,198.8
				l-5.7-15.6l0-1.5h1.5l6.5,17.1H500.6z"/>
			<path class="st1" d="M505.2,181.8h1.9l0.3,10.4v6.7h-2.3V181.8z M505.9,181.8h2.2l5.6,13.9l5.6-13.9h2.2l-6.9,17.1h-1.7
				L505.9,181.8z M520.2,181.8h1.9v17.1h-2.3v-6.7L520.2,181.8z"/>
			<path class="st1" d="M528.4,181.8v17.1h-2.3v-17.1H528.4z M536.9,181.8v1.9h-8.9v-1.9H536.9z M535.8,189.1v1.8h-7.8v-1.8H535.8z
				 M537,197v1.8h-9V197H537z"/>
			<path class="st1" d="M548.9,194.5c0-0.4-0.1-0.8-0.2-1.1s-0.3-0.6-0.6-0.8s-0.7-0.5-1.2-0.7s-1.2-0.5-2-0.7
				c-0.8-0.3-1.6-0.5-2.3-0.8s-1.3-0.7-1.7-1.1s-0.9-0.9-1.1-1.4s-0.4-1.1-0.4-1.8s0.1-1.3,0.4-1.8s0.7-1.1,1.2-1.5s1.1-0.7,1.8-1
				s1.5-0.4,2.4-0.4c1.3,0,2.4,0.2,3.3,0.7s1.6,1.1,2,1.9s0.7,1.6,0.7,2.5h-2.3c0-0.6-0.1-1.2-0.4-1.7s-0.7-0.9-1.2-1.2
				s-1.3-0.4-2.1-0.4c-0.8,0-1.5,0.1-2,0.4s-0.9,0.6-1.2,1s-0.4,0.9-0.4,1.4c0,0.4,0.1,0.7,0.2,1s0.4,0.6,0.7,0.8s0.7,0.5,1.2,0.7
				s1.1,0.4,1.8,0.6c1,0.3,1.8,0.6,2.5,0.9s1.3,0.7,1.7,1.1s0.8,0.9,1,1.4s0.3,1.1,0.3,1.8c0,0.7-0.1,1.3-0.4,1.9s-0.7,1-1.2,1.4
				s-1.2,0.7-1.9,0.9s-1.5,0.3-2.4,0.3c-0.8,0-1.6-0.1-2.3-0.3s-1.5-0.5-2.1-1s-1.1-1-1.5-1.6s-0.6-1.4-0.6-2.2h2.3
				c0,0.6,0.1,1.1,0.3,1.5s0.5,0.8,0.9,1s0.8,0.5,1.3,0.6s1,0.2,1.6,0.2c0.8,0,1.5-0.1,2-0.3s1-0.5,1.2-0.9S548.9,195.1,548.9,194.5
				z"/>
		</g>
	</g>
	<line id="Spacer_4_" class="st2" x1="422.5" y1="190.2" x2="459.4" y2="190.2"/>
	<g id="POOL">
		<g>
			<path class="st1" d="M358.3,192.1h-4.6v-1.8h4.6c0.9,0,1.6-0.1,2.1-0.4s0.9-0.7,1.2-1.2s0.4-1.1,0.4-1.7c0-0.6-0.1-1.1-0.4-1.7
				s-0.7-0.9-1.2-1.2s-1.3-0.5-2.1-0.5h-4v15.2H352v-17.1h6.3c1.3,0,2.4,0.2,3.3,0.7s1.6,1.1,2,1.8s0.7,1.7,0.7,2.7
				c0,1.1-0.2,2-0.7,2.8s-1.1,1.4-2,1.8S359.6,192.1,358.3,192.1z"/>
			<path class="st1" d="M380.3,189.7v1.1c0,1.3-0.2,2.4-0.5,3.4s-0.8,1.9-1.4,2.6s-1.3,1.3-2.2,1.6s-1.8,0.6-2.8,0.6
				c-1,0-1.9-0.2-2.8-0.6s-1.6-0.9-2.2-1.6s-1.1-1.6-1.4-2.6s-0.5-2.2-0.5-3.4v-1.1c0-1.3,0.2-2.4,0.5-3.4s0.8-1.9,1.4-2.6
				s1.3-1.3,2.2-1.6s1.8-0.6,2.8-0.6c1,0,2,0.2,2.8,0.6s1.6,0.9,2.2,1.6s1.1,1.6,1.4,2.6S380.3,188.4,380.3,189.7z M378,190.8v-1.1
				c0-1-0.1-1.9-0.3-2.7s-0.5-1.4-0.9-2s-0.9-0.9-1.5-1.2s-1.2-0.4-2-0.4c-0.7,0-1.3,0.1-1.9,0.4s-1.1,0.7-1.5,1.2s-0.7,1.2-0.9,2
				s-0.3,1.7-0.3,2.7v1.1c0,1,0.1,1.9,0.3,2.7s0.5,1.4,0.9,2s0.9,0.9,1.5,1.2s1.2,0.4,1.9,0.4c0.7,0,1.4-0.1,2-0.4s1.1-0.7,1.4-1.2
				s0.7-1.2,0.9-2S378,191.8,378,190.8z"/>
			<path class="st1" d="M396.8,189.7v1.1c0,1.3-0.2,2.4-0.5,3.4s-0.8,1.9-1.4,2.6s-1.3,1.3-2.2,1.6s-1.8,0.6-2.8,0.6
				c-1,0-1.9-0.2-2.8-0.6s-1.6-0.9-2.2-1.6s-1.1-1.6-1.4-2.6s-0.5-2.2-0.5-3.4v-1.1c0-1.3,0.2-2.4,0.5-3.4s0.8-1.9,1.4-2.6
				s1.3-1.3,2.2-1.6s1.8-0.6,2.8-0.6c1,0,2,0.2,2.8,0.6s1.6,0.9,2.2,1.6s1.1,1.6,1.4,2.6S396.8,188.4,396.8,189.7z M394.5,190.8
				v-1.1c0-1-0.1-1.9-0.3-2.7s-0.5-1.4-0.9-2s-0.9-0.9-1.5-1.2s-1.2-0.4-2-0.4c-0.7,0-1.3,0.1-1.9,0.4s-1.1,0.7-1.5,1.2
				s-0.7,1.2-0.9,2s-0.3,1.7-0.3,2.7v1.1c0,1,0.1,1.9,0.3,2.7s0.5,1.4,0.9,2s0.9,0.9,1.5,1.2s1.2,0.4,1.9,0.4c0.7,0,1.4-0.1,2-0.4
				s1.1-0.7,1.4-1.2s0.7-1.2,0.9-2S394.5,191.8,394.5,190.8z"/>
			<path class="st1" d="M402.4,181.7v17.1h-2.3v-17.1H402.4z M410.5,196.9v1.8H402v-1.8H410.5z"/>
		</g>
	</g>
	<line id="Spacer_3_" class="st2" x1="301.7" y1="190.2" x2="338.6" y2="190.2"/>
	<g id="DARTS">
		<g>
			<path class="st1" d="M221.1,181.8v17.1h-2.3v-17.1H221.1z M223.4,198.9h-3.6l0-1.8h3.5c1.2,0,2.2-0.3,3-0.8s1.4-1.2,1.8-2.2
				s0.6-2,0.6-3.3v-1c0-1-0.1-1.8-0.4-2.6s-0.6-1.4-1-1.9s-1-0.9-1.7-1.2s-1.4-0.4-2.2-0.4h-3.8v-1.9h3.8c1.1,0,2.1,0.2,3.1,0.6
				s1.7,0.9,2.4,1.6s1.2,1.5,1.5,2.5s0.5,2.1,0.5,3.3v1c0,1.2-0.2,2.3-0.5,3.3s-0.9,1.8-1.6,2.5s-1.5,1.2-2.4,1.6
				S224.6,198.9,223.4,198.9z"/>
			<path class="st1" d="M240.6,183.3l-5.6,15.6h-2.3l6.5-17.1h1.5L240.6,183.3z M245.1,192.5v1.9h-9.6v-1.9H245.1z M245.4,198.9
				l-5.7-15.6l0-1.5h1.5l6.5,17.1H245.4z"/>
			<path class="st1" d="M250,181.8h5.6c1.3,0,2.4,0.2,3.3,0.6s1.6,1,2,1.7s0.7,1.7,0.7,2.8c0,0.8-0.2,1.5-0.5,2.1s-0.8,1.2-1.4,1.6
				s-1.3,0.8-2.1,1L257,192h-5.3l0-1.8h4c0.8,0,1.5-0.1,2-0.4s0.9-0.7,1.2-1.2s0.4-1,0.4-1.6c0-0.7-0.1-1.2-0.4-1.7
				s-0.7-0.9-1.2-1.1s-1.3-0.4-2.1-0.4h-3.4v15.2H250V181.8z M260,198.9l-4.1-7.7l2.4,0l4.2,7.6v0.1H260z"/>
			<path class="st1" d="M275.6,181.8v1.9h-13.2v-1.9H275.6z M270.1,181.8v17.1h-2.2v-17.1H270.1z"/>
			<path class="st1" d="M287.1,194.6c0-0.4-0.1-0.8-0.2-1.1s-0.3-0.6-0.6-0.8s-0.7-0.5-1.2-0.7s-1.2-0.5-2-0.7
				c-0.8-0.3-1.6-0.5-2.3-0.8s-1.3-0.7-1.7-1.1s-0.9-0.9-1.1-1.4s-0.4-1.1-0.4-1.8s0.1-1.3,0.4-1.8s0.7-1.1,1.2-1.5s1.1-0.7,1.8-1
				s1.5-0.4,2.4-0.4c1.3,0,2.4,0.2,3.3,0.7s1.6,1.1,2,1.9s0.7,1.6,0.7,2.5H287c0-0.6-0.1-1.2-0.4-1.7s-0.7-0.9-1.2-1.2
				s-1.3-0.4-2.1-0.4c-0.8,0-1.5,0.1-2,0.4s-0.9,0.6-1.2,1s-0.4,0.9-0.4,1.4c0,0.4,0.1,0.7,0.2,1s0.4,0.6,0.7,0.8s0.7,0.5,1.2,0.7
				s1.1,0.4,1.8,0.6c1,0.3,1.8,0.6,2.5,0.9s1.3,0.7,1.7,1.1s0.8,0.9,1,1.4s0.3,1.1,0.3,1.8c0,0.7-0.1,1.3-0.4,1.9s-0.7,1-1.2,1.4
				s-1.2,0.7-1.9,0.9s-1.5,0.3-2.4,0.3c-0.8,0-1.6-0.1-2.3-0.3s-1.5-0.5-2.1-1s-1.1-1-1.5-1.6s-0.6-1.4-0.6-2.2h2.3
				c0,0.6,0.1,1.1,0.3,1.5s0.5,0.8,0.9,1s0.8,0.5,1.3,0.6s1,0.2,1.6,0.2c0.8,0,1.5-0.1,2-0.3s1-0.5,1.2-0.9S287.1,195.1,287.1,194.6
				z"/>
		</g>
	</g>
	<line id="Spacer_5_" class="st2" x1="167.6" y1="190.2" x2="204.5" y2="190.2"/>
	<g id="SNOOKER">
		<g>
			<path class="st1" d="M59.4,194.6c0-0.4-0.1-0.8-0.2-1.1s-0.3-0.6-0.6-0.8s-0.7-0.5-1.2-0.7s-1.2-0.5-2-0.7
				c-0.8-0.3-1.6-0.5-2.3-0.8s-1.3-0.7-1.7-1.1s-0.9-0.9-1.1-1.4s-0.4-1.1-0.4-1.8s0.1-1.3,0.4-1.8s0.7-1.1,1.2-1.5s1.1-0.7,1.8-1
				s1.5-0.4,2.4-0.4c1.3,0,2.4,0.2,3.3,0.7s1.6,1.1,2,1.9s0.7,1.6,0.7,2.5h-2.3c0-0.6-0.1-1.2-0.4-1.7s-0.7-0.9-1.2-1.2
				s-1.3-0.4-2.1-0.4c-0.8,0-1.5,0.1-2,0.4s-0.9,0.6-1.2,1s-0.4,0.9-0.4,1.4c0,0.4,0.1,0.7,0.2,1s0.4,0.6,0.7,0.8s0.7,0.5,1.2,0.7
				s1.1,0.4,1.8,0.6c1,0.3,1.8,0.6,2.5,0.9s1.3,0.7,1.7,1.1s0.8,0.9,1,1.4s0.3,1.1,0.3,1.8c0,0.7-0.1,1.3-0.4,1.9s-0.7,1-1.2,1.4
				s-1.2,0.7-1.9,0.9s-1.5,0.3-2.4,0.3c-0.8,0-1.6-0.1-2.3-0.3s-1.5-0.5-2.1-1s-1.1-1-1.5-1.6s-0.6-1.4-0.6-2.2h2.3
				c0,0.6,0.1,1.1,0.3,1.5s0.5,0.8,0.9,1s0.8,0.5,1.3,0.6s1,0.2,1.6,0.2c0.8,0,1.5-0.1,2-0.3s1-0.5,1.2-0.9S59.4,195.1,59.4,194.6z"
				/>
			<path class="st1" d="M77.6,181.8v17.1h-2.3l-8.6-13.2v13.2h-2.3v-17.1h2.3l8.6,13.2v-13.2H77.6z"/>
			<path class="st1" d="M94.8,189.8v1.1c0,1.3-0.2,2.4-0.5,3.4s-0.8,1.9-1.4,2.6s-1.3,1.3-2.2,1.6s-1.8,0.6-2.8,0.6
				c-1,0-1.9-0.2-2.8-0.6s-1.6-0.9-2.2-1.6s-1.1-1.6-1.4-2.6s-0.5-2.2-0.5-3.4v-1.1c0-1.3,0.2-2.4,0.5-3.4s0.8-1.9,1.4-2.6
				s1.3-1.3,2.2-1.6s1.8-0.6,2.8-0.6c1,0,2,0.2,2.8,0.6s1.6,0.9,2.2,1.6s1.1,1.6,1.4,2.6S94.8,188.5,94.8,189.8z M92.5,190.9v-1.1
				c0-1-0.1-1.9-0.3-2.7s-0.5-1.4-0.9-2s-0.9-0.9-1.5-1.2s-1.2-0.4-2-0.4c-0.7,0-1.3,0.1-1.9,0.4s-1.1,0.7-1.5,1.2s-0.7,1.2-0.9,2
				s-0.3,1.7-0.3,2.7v1.1c0,1,0.1,1.9,0.3,2.7s0.5,1.4,0.9,2s0.9,0.9,1.5,1.2s1.2,0.4,1.9,0.4c0.7,0,1.4-0.1,2-0.4s1.1-0.7,1.4-1.2
				s0.7-1.2,0.9-2S92.5,191.9,92.5,190.9z"/>
			<path class="st1" d="M111.3,189.8v1.1c0,1.3-0.2,2.4-0.5,3.4s-0.8,1.9-1.4,2.6s-1.3,1.3-2.2,1.6s-1.8,0.6-2.8,0.6
				c-1,0-1.9-0.2-2.8-0.6s-1.6-0.9-2.2-1.6s-1.1-1.6-1.4-2.6s-0.5-2.2-0.5-3.4v-1.1c0-1.3,0.2-2.4,0.5-3.4s0.8-1.9,1.4-2.6
				s1.3-1.3,2.2-1.6s1.8-0.6,2.8-0.6c1,0,2,0.2,2.8,0.6s1.6,0.9,2.2,1.6s1.1,1.6,1.4,2.6S111.3,188.5,111.3,189.8z M109,190.9v-1.1
				c0-1-0.1-1.9-0.3-2.7s-0.5-1.4-0.9-2s-0.9-0.9-1.5-1.2s-1.2-0.4-2-0.4c-0.7,0-1.3,0.1-1.9,0.4s-1.1,0.7-1.5,1.2s-0.7,1.2-0.9,2
				s-0.3,1.7-0.3,2.7v1.1c0,1,0.1,1.9,0.3,2.7s0.5,1.4,0.9,2s0.9,0.9,1.5,1.2s1.2,0.4,1.9,0.4c0.7,0,1.4-0.1,2-0.4s1.1-0.7,1.4-1.2
				s0.7-1.2,0.9-2S109,191.9,109,190.9z"/>
			<path class="st1" d="M116.9,181.8v17.1h-2.3v-17.1H116.9z M127.2,181.8l-7.1,8l-4,4.1l-0.4-2.4l3-3.3l5.7-6.4H127.2z M125,198.9
				l-6.3-8.3l1.3-1.8l7.7,10.1H125z"/>
			<path class="st1" d="M132,181.8v17.1h-2.3v-17.1H132z M140.4,181.8v1.9h-8.9v-1.9H140.4z M139.4,189.1v1.8h-7.8v-1.8H139.4z
				 M140.6,197v1.8h-9V197H140.6z"/>
			<path class="st1" d="M143.4,181.8h5.6c1.3,0,2.4,0.2,3.3,0.6s1.6,1,2,1.7s0.7,1.7,0.7,2.8c0,0.8-0.2,1.5-0.5,2.1
				s-0.8,1.2-1.4,1.6s-1.3,0.8-2.1,1l-0.6,0.2h-5.3l0-1.8h4c0.8,0,1.5-0.1,2-0.4s0.9-0.7,1.2-1.2s0.4-1,0.4-1.6
				c0-0.7-0.1-1.2-0.4-1.7s-0.7-0.9-1.2-1.1s-1.3-0.4-2.1-0.4h-3.4v15.2h-2.3V181.8z M153.3,198.9l-4.1-7.7l2.4,0l4.2,7.6v0.1H153.3
				z"/>
		</g>
	</g>
	<line id="Bottom_left_line_1_" class="st0" x1="4" y1="190.2" x2="34.3" y2="190.2"/>
	<line id="Right_line" class="st0" x1="596.3" y1="4" x2="596.3" y2="190.2"/>
	<line id="Top_line" class="st0" x1="4" y1="4" x2="596.3" y2="4"/>
	<line id="Left_line" class="st0" x1="4" y1="190.2" x2="4" y2="4"/>
</g>
<g id="ER">
	<g>
		<g>
			<g>
				<radialGradient id="SVGID_1_" cx="516.2896" cy="95.1248" r="110.7087" gradientUnits="userSpaceOnUse">
					<stop  offset="0.25" style="stop-color:#FFFFFF"/>
					<stop  offset="1" style="stop-color:#929497"/>
				</radialGradient>
				<path class="st3" d="M601,153.2c-10.6,0-21.1-8.5-31.3-25.4c-10.2-16.7-15.4-33.3-15.4-49.4c0-10.1,2.5-17.9,7.4-23.4
					c2.7-3,6-5.2,10-6.6c-9,4.6-13.5,13-13.5,25.2c0,13.2,4.8,27.3,14.2,41.9c9.6,14.9,18.2,22.2,26.3,22.2
					c7.6,0,14.4-5.1,20.1-15.2c5.2-9.2,8-20,8.4-32.2c0.2,2.8,0.3,5.9,0.3,9.1c0,14.5-2,26.7-5.9,36.4
					C616.7,147.5,610,153.2,601,153.2z M545.5,153.2c-13.3,0-24-5.4-31.7-15.9c-7-9.6-10.6-21.8-10.6-36.3c0-6.8,0.9-13.5,2.6-19.9
					c-0.6,3.5-0.9,7.1-0.9,10.8c0,12.4,3.4,23.2,10,32.2c6.7,9.1,14.9,13.7,24.3,13.7c8.8,0,10.7-3.7,10.7-6.9
					c0-5.3-2-11.3-5.8-17.8c-6.2-10.5-9.7-16.7-10.6-18.4c-3.7-8.4-5.6-17.8-5.6-28.1c0-12.5,5-22,14.7-28.1
					c7.2-4.4,15.6-6.7,25-6.7c15.7,0,28.2,4.5,37.2,13.5c7.7,7.8,11.6,17.2,11.6,28c0,7.4-2,13.7-6,18.7c-4.2,5.2-9.9,7.9-17,7.9
					c-8.3,0-15.4-3-21-8.9c-5.2-5.5-7.8-11.9-7.8-19c0-5.6,1.9-10.4,5.6-14.2c2.4-2.6,5.5-4.5,9.1-5.9c-1.6,1.1-3.1,2.5-4.3,4
					c-2.7,3.3-4,7.1-4,11.3c0,4.4,1.4,8.1,4.1,11.3c2.8,3.2,6.4,4.8,10.7,4.8c8.9,0,13.4-5.2,13.4-15.6c0-8-2.7-15.7-8-22.9
					c-5.8-7.9-12.8-12-20.8-12c-10.3,0-19.1,2.4-26.1,7.1c-9,6.2-13.6,15.6-13.6,27.9c0,8.8,2.8,17.3,8.3,25.3
					c5,6.2,10,12.7,15.1,19.2c5.2,7.8,7.9,16.3,7.9,25.4c0,3.7-1.1,6.9-3.1,9.7C555.9,151.4,551.6,153.2,545.5,153.2z"/>
				<path class="st4" d="M580.7,34.2c9.4,1.9,17.2,5.9,23.3,12c7.5,7.6,11.3,16.8,11.3,27.3c0,7.2-1.9,13.3-5.7,18.1
					c-4.1,5-9.4,7.5-16.2,7.5c-8.2,0-14.8-2.8-20.3-8.6c-5.1-5.4-7.5-11.3-7.5-18.3c0-5.4,1.7-9.8,5.3-13.5c0.8-0.9,1.7-1.7,2.7-2.4
					c-2.4,3.3-3.6,7-3.6,11c0,4.6,1.5,8.6,4.4,11.9c3,3.4,6.8,5.1,11.4,5.1c6.6,0,14.4-2.9,14.4-16.6c0-8.2-2.7-16.1-8.1-23.5
					C588.6,39.6,584.8,36.2,580.7,34.2 M544.6,38.6c-0.3,0.2-0.6,0.4-0.9,0.6c-9.3,6.4-14,16.1-14,28.7c0,9,2.8,17.7,8.4,25.9l0,0.1
					l0,0.1c4.9,6.2,10,12.6,15,19.1c5.1,7.6,7.7,16,7.7,24.8c0,3.5-1,6.5-2.9,9.1c-2.7,3.6-6.8,5.4-12.5,5.4
					c-13.2,0-23.3-5.1-30.9-15.5c-6.9-9.4-10.4-21.5-10.4-35.7c0-0.7,0-1.3,0-2c1.1,9.7,4.4,18.3,9.8,25.7
					c6.9,9.4,15.3,14.1,25.1,14.1c9.6,0,11.7-4.3,11.7-7.9c0-5.5-2-11.7-6-18.3c-7.7-13-10-17.2-10.5-18.3
					c-3.7-8.2-5.5-17.6-5.5-27.7c0-12.4,4.7-21.3,14.3-27.3C543.6,39.1,544.1,38.8,544.6,38.6 M560.1,58.7c-2,4.2-3,9.2-3,15
					c0,13.4,4.8,27.7,14.3,42.4c9.8,15.2,18.7,22.6,27.1,22.6c8,0,15.1-5.3,21-15.8c3-5.3,5.2-11.2,6.7-17.6
					c-0.5,11.7-2.4,21.8-5.8,30c-4.6,11.3-11,16.8-19.5,16.8c-10.2,0-20.4-8.4-30.5-24.9c-10.1-16.5-15.2-32.9-15.2-48.9
					C555.3,70.4,556.9,63.8,560.1,58.7 M567.5,30.9c-9.6,0-18.1,2.3-25.5,6.8c-10.1,6.3-15.2,16-15.2,29c0,10.4,1.9,19.9,5.7,28.5
					c0.8,1.8,4.4,8,10.6,18.5c3.8,6.3,5.7,12.1,5.7,17.3c0,3.9-3.2,5.9-9.7,5.9c-9.1,0-16.9-4.4-23.5-13.3
					c-6.6-8.9-9.8-19.4-9.8-31.6c0-16.2,5.9-30.7,17.8-43.5c-7,6.2-12.3,14.2-16,23.9c-3.6,9.1-5.4,18.6-5.4,28.7
					c0,14.8,3.6,27.1,10.8,36.9c7.9,10.9,18.8,16.3,32.5,16.3c6.3,0,11-2.1,14.1-6.2c2.2-3,3.3-6.4,3.3-10.3c0-9.3-2.7-18-8.1-26
					c-5-6.4-10-12.8-15.1-19.2c-5.4-7.8-8.1-16.1-8.1-24.7c0-12,4.4-21.1,13.2-27.1c6.9-4.6,15.4-7,25.5-7c7.7,0,14.4,3.9,20,11.6
					c5.2,7.1,7.8,14.5,7.8,22.3c0,9.7-4.1,14.6-12.4,14.6c-4,0-7.3-1.5-9.9-4.4c-2.6-3-3.9-6.5-3.9-10.6c0-3.9,1.3-7.4,3.8-10.6
					c3-3.6,7.1-6.1,12.5-7.6c-8.2,0.8-14.5,3.6-18.9,8.2c-3.9,4-5.9,9-5.9,14.9c0,7.4,2.7,13.9,8.1,19.7c5.8,6.1,13,9.2,21.7,9.2
					c7.4,0,13.3-2.7,17.8-8.2c4.1-5.2,6.2-11.6,6.2-19.3c0-11.1-4-20.7-11.9-28.7C596.2,35.5,583.6,30.9,567.5,30.9L567.5,30.9z
					 M583.8,45.6c-10,0-17.7,2.9-23,8.8c-5.1,5.7-7.6,13.7-7.6,24.1c0,16.4,5.2,33,15.5,49.9c10.5,17.2,21.2,25.8,32.2,25.8
					c9.4,0,16.5-6,21.4-18.1c4-9.8,6-22.1,6-36.8c0-12.6-1.3-22.1-4-28.5c1.2,5.4,1.7,10.9,1.7,16.5c0,13.3-2.8,24.9-8.3,34.7
					c-5.5,9.8-12,14.7-19.3,14.7c-7.6,0-16.1-7.2-25.4-21.7c-9.4-14.5-14-28.3-14-41.4c0-17.3,9.2-26.7,27.7-28.1
					C585.8,45.6,584.8,45.6,583.8,45.6L583.8,45.6z"/>
			</g>
		</g>
		<g>
			<g>
				<radialGradient id="SVGID_2_" cx="514.8952" cy="95.1373" r="110.679" gradientUnits="userSpaceOnUse">
					<stop  offset="0.25" style="stop-color:#FFFFFF"/>
					<stop  offset="1" style="stop-color:#929497"/>
				</radialGradient>
				<path class="st5" d="M477.1,154.2c-19.1,0-34.1-6.3-44.6-18.7c-9.1-10.9-13.7-24.7-13.7-41.2c0-16.3,4.3-30.7,12.7-42.7
					c9.1-12.8,20.6-19.2,34.4-19.2c15,0,26.7,3.5,34.9,10.4c6.9,5.9,10.4,13.1,10.4,21.4c0,6-1.8,11-5.3,15
					c-3.8,4.4-8.6,6.5-14.6,6.5c-6.7,0-12.1-2.1-16.1-6.2c-3.7-3.6-5.6-8-5.6-13.1c0-4.9,1.7-9.1,5.1-12.4c1.7-1.7,3.8-3,6.1-3.9
					c-2.9,2.2-4.3,5-4.3,8.6c0,3,1.2,5.7,3.6,7.9c2.3,2.2,5.4,3.3,9,3.3c7.1,0,10.8-3.6,10.8-10.6c0-6-2.8-11.6-8.3-16.5
					c-6.4-5.8-14.5-8.7-24-8.7c-12.5,0-22.9,5.7-30.9,16.9c-7.5,10.3-11.3,22.6-11.3,36.6c0,6.6,0.9,13,2.6,18.9l2,6.8v-13.2
					c0-9.2,1.9-17.1,5.7-23.6c3.7-6.4,8.4-9.5,14.2-9.5c6.1,0,9.8,2.5,11.4,7.6c1.7,5.5,3.3,10.9,4.9,16.2l0,0.1l0.1,0.1
					c3.6,6.1,10.8,9.2,21.5,9.2c11.3,0,20.1-3.2,26.2-9.5c5.2-5.4,7.9-12.5,7.9-20.9c0-2.4-0.2-4.7-0.6-6.9c1.6,4.4,2.4,9,2.4,13.9
					c0,10.5-3.6,19.5-10.7,26.9c-7.6,7.9-17.8,11.9-30.3,11.9c-10.3,0-17.4-2.5-21.2-7.5c-2.7-3.5-4.1-9.1-4.1-16.5
					c0-1.2,0.1-2.9,0.2-5c0.1-2.3,0.2-3.9,0.2-4.8c0-4.5-0.6-7.8-1.7-9.8c-1.6-2.9-4.3-4.3-8.2-4.3c-4.6,0-8.7,3.3-12.2,9.8
					c-3.4,6.3-5.1,13.6-5.1,21.6c0,11.1,3.4,20.3,10.1,27.5c8.2,8.6,20.5,13,36.5,13c19.1,0,33.9-5.5,44-16.5
					c8.7-9.4,13.1-21.6,13.1-36.2c0-8.1-1.5-16-4.3-23.4c-1.2-3-2.5-5.9-4.1-8.4c2.9,3.4,5.3,7.3,7.3,11.7c3.6,8,5.5,16.8,5.5,26.2
					c0,16.4-5.1,30.5-15.1,42C512.2,147.7,496.6,154.2,477.1,154.2z"/>
				<path class="st4" d="M459.4,34c-9.3,2-17.2,7.5-23.6,16.5c-7.6,10.5-11.5,23-11.5,37.2c0,6.7,0.9,13.2,2.6,19.1l3.9,13.5v-9.4
					c1.6,6.2,4.6,11.6,8.9,16.2c8.4,8.8,20.9,13.3,37.3,13.3c19.4,0,34.5-5.7,44.7-16.8c8.9-9.6,13.4-22,13.4-36.9
					c0-6.7-1-13.3-3-19.6c3.5,7.8,5.3,16.4,5.3,25.6c0,16.1-5,30-14.9,41.3c-11.1,12.7-26.4,19.1-45.6,19.1
					c-18.8,0-33.6-6.2-43.8-18.3c-8.9-10.7-13.5-24.3-13.5-40.6c0-16.1,4.2-30.3,12.5-42.1C439.8,41.7,448.7,35.6,459.4,34
					 M477.6,34.3c9.3,1.4,16.8,4.5,22.5,9.3c6.8,5.8,10.1,12.5,10.1,20.7c0,5.8-1.7,10.5-5,14.4c-3.7,4.1-8.2,6.1-13.9,6.1
					c-6.5,0-11.5-1.9-15.4-5.9l0,0l0,0c-3.5-3.4-5.3-7.5-5.3-12.4c0-4.7,1.6-8.5,4.8-11.7c0.3-0.3,0.7-0.7,1.1-1
					c-0.7,1.5-1,3.1-1,4.9c0,3.3,1.3,6.2,3.9,8.6c2.5,2.4,5.8,3.5,9.7,3.5c7.6,0,11.8-4.1,11.8-11.6c0-6.3-2.9-12.1-8.6-17.2
					C488,38.3,483.1,35.7,477.6,34.3 M454.6,68.7c2.9,1,4.7,3,5.7,6.2c1.7,5.5,3.3,10.9,4.9,16.2l0.1,0.2l0.1,0.2
					c3.7,6.4,11.3,9.7,22.3,9.7c11.6,0,20.7-3.3,27-9.8c4.4-4.6,7.1-10.3,7.9-17c0,0.8,0.1,1.6,0.1,2.5c0,10.2-3.5,19-10.4,26.2
					c-7.4,7.7-17.4,11.6-29.6,11.6c-10,0-16.8-2.4-20.4-7.1c-2.6-3.3-3.9-8.7-3.9-15.9c0-1.1,0.1-2.8,0.2-5c0.1-2.3,0.2-3.9,0.2-4.8
					c0-4.7-0.6-8.1-1.8-10.3C456.4,70.5,455.6,69.5,454.6,68.7 M465.9,31.5c-14.2,0-25.9,6.6-35.2,19.7
					c-8.6,12.3-12.8,26.7-12.8,43.3c0,16.8,4.6,30.7,13.9,41.8c10.7,12.7,25.8,19,45.3,19c19.9,0,35.6-6.6,47.1-19.8
					c10.2-11.7,15.4-25.9,15.4-42.6c0-9.6-1.8-18.5-5.5-26.6c-3.9-8.6-9.4-15.3-16.5-20.1c4.8,4.4,8.6,10.3,11.4,17.7
					c2.9,7.3,4.3,15,4.3,23.1c0,14.4-4.3,26.2-12.8,35.5c-9.9,10.8-24.4,16.2-43.3,16.2c-15.8,0-27.8-4.2-35.8-12.7
					c-6.6-7-9.8-15.9-9.8-26.8c0-7.9,1.7-15,5-21.2c3.3-6.2,7.1-9.3,11.3-9.3c3.5,0,5.9,1.3,7.3,3.8c1.1,1.9,1.6,5,1.6,9.4
					c0,1-0.1,2.5-0.2,4.8c-0.1,2.2-0.2,3.9-0.2,5.1c0,7.7,1.4,13.4,4.3,17.1c4,5.3,11.4,7.9,22,7.9c12.9,0,23.2-4.1,31.1-12.2
					c7.3-7.6,10.9-16.8,10.9-27.6c0-9.5-2.9-18-8.7-25.5c3.3,5.6,4.9,11.7,4.9,18.5c0,8.2-2.5,15-7.6,20.2
					c-5.9,6.1-14.4,9.2-25.5,9.2c-10.4,0-17.2-2.9-20.6-8.7c-1.6-5.3-3.2-10.6-4.9-16.2c-1.7-5.5-5.8-8.3-12.4-8.3
					c-6.1,0-11.1,3.3-15.1,10c-3.9,6.7-5.9,14.7-5.9,24.1c0,2,0,4.1,0,6.2c-1.7-5.8-2.5-12-2.5-18.6c0-13.9,3.7-25.9,11.1-36.1
					c7.8-11,17.9-16.5,30.1-16.5c9.3,0,17.1,2.8,23.3,8.4c5.3,4.8,7.9,10,7.9,15.8c0,6.4-3.3,9.6-9.8,9.6c-3.4,0-6.2-1-8.3-3
					c-2.2-2-3.2-4.4-3.2-7.1c0-5.9,4.4-9.7,13.2-11.4c-7.1,0.1-12.6,2.1-16.6,6c-3.6,3.6-5.4,8-5.4,13.2c0,5.4,2,10,5.9,13.8
					c4.2,4.3,9.8,6.5,16.8,6.5c6.2,0,11.4-2.3,15.4-6.8c3.7-4.2,5.5-9.5,5.5-15.7c0-8.7-3.6-16.1-10.8-22.2
					C493,35,481.2,31.5,465.9,31.5L465.9,31.5z"/>
			</g>
		</g>
	</g>
</g>
<g id="_x26_">
	<rect x="494.7" y="75" class="st1" width="40.7" height="40.7"/>
	<g>
		<g>
			<path class="st6" d="M523.7,111.7c-2.4,0-4.8-0.4-7-1.2l-0.1,0l-0.1,0c-1.8,0.4-3.8,0.6-5.9,0.6c-3.7,0-6.8-0.9-9.4-2.6
				c-2.6-1.7-3.8-3.7-3.8-5.9c0-2.5,1.6-4.8,4.9-6.8l0.3-0.2l-0.1-0.4c-0.6-1.9-0.9-3.7-0.9-5.5c0-3.7,1.1-6.7,3.4-8.9
				c2.5-2.5,6.1-3.8,10.8-3.8c2.8,0,5.2,0.5,7.1,1.5c2.1,1.1,3.1,2.7,3.1,4.9c0,2-1.7,3.8-4.9,5.5c-2.3,1.2-5.8,2.5-10.5,3.8
				c-2.4,0.6-4.4,1.5-5.9,2.4l-0.4,0.2l0.2,0.4c2.6,5.7,6.8,9.4,12.6,10.9l0.1,0l0.1,0c2.6-0.6,4.7-1.7,6.2-3.3c1.3-1.5,2-3.1,2-4.8
				c0-1.6-0.6-2.9-1.7-4c-1.1-1.1-2.7-1.6-4.7-1.6c-1.3,0-2.4,0.1-3.4,0.4c1.1-0.4,2.3-0.6,3.6-0.6c2.5,0,4.4,0.7,5.9,2.1
				c1.3,1.3,2,2.9,2,4.9c0,2.3-0.9,4.5-2.8,6.4l-1.1,1.2l1.6-0.4c2.1-0.5,3.8-1.5,5.1-3c1.2-1.4,1.8-3,1.8-4.9
				c0-1.7-0.5-3.2-1.5-4.5c0.4,0.5,0.8,1,1.1,1.6c1.6,3.1,1.6,6.3-0.1,9.9C529.5,109.9,527,111.7,523.7,111.7z M502.3,97
				c-0.9,1-1.4,2.1-1.4,3.2c0,1.5,0.7,2.9,2.2,4.1c1.4,1.2,3.3,2,5.6,2.4l1.8,0.4l-1.4-1.2c-2.7-2.4-4.7-5.4-6.1-8.7l-0.3-0.8
				L502.3,97z M512.7,77.7c-3.2,0-5.8,1-7.6,3.1c-1.6,1.9-2.5,4.3-2.5,7.3c0,2,0.4,4.1,1.1,6.1l0.2,0.5l0.5-0.2
				c1.7-0.8,3.6-1.5,5.8-2.2c7-2,10.5-4.8,10.5-8.5c0-1.8-0.7-3.3-2-4.4C517.4,78.3,515.3,77.7,512.7,77.7z"/>
			<path class="st4" d="M515.8,77.5c2.7,0,5,0.5,6.9,1.5c1.9,1,2.9,2.5,2.9,4.4c0,1.8-1.6,3.5-4.7,5.1c-1,0.5-2.3,1.1-3.8,1.7
				c2.8-1.7,4.3-3.8,4.3-6.3c0-1.9-0.7-3.6-2.2-4.8C518.2,78.3,517.1,77.8,515.8,77.5C515.7,77.5,515.7,77.5,515.8,77.5 M502.2,88.4
				c0,2,0.4,4,1.2,6l0.4,1l0,0L504,96c2.6,5.8,7,9.6,12.9,11.2l0.2,0.1l0.2-0.1c2.7-0.6,4.9-1.8,6.5-3.4c1.4-1.6,2.1-3.3,2.1-5.2
				c0-1-0.2-2-0.7-2.8c1,1.1,1.4,2.4,1.4,4.1c0,2.2-0.9,4.2-2.6,6.1l-2.3,2.4l3.2-0.7c2.2-0.5,4-1.6,5.3-3.2c0.9-1,1.4-2.1,1.7-3.3
				c0,1.6-0.5,3.2-1.3,4.9c-1.7,3.4-4,5.1-7,5.1c-2.4,0-4.7-0.4-6.8-1.1l-0.3-0.1l-0.3,0.1c-1.7,0.4-3.7,0.6-5.8,0.6
				c-3.6,0-6.6-0.9-9.1-2.5c-2.4-1.6-3.6-3.4-3.6-5.5c0-2.2,1.5-4.3,4.4-6.2l-0.3,0.3c-1,1.1-1.5,2.3-1.5,3.5c0,1.6,0.8,3.1,2.4,4.4
				c1.5,1.2,3.4,2.1,5.8,2.6l3.6,0.7l-2.7-2.5c-2.6-2.4-4.6-5.2-5.9-8.5l-0.5-1.2l0,0l-0.2-0.7c-0.6-1.8-0.8-3.6-0.8-5.4
				C502.1,89.3,502.1,88.8,502.2,88.4 M515.8,76.5c-4.9,0-8.6,1.3-11.1,3.9c-2.3,2.4-3.5,5.4-3.5,9.3c0,1.9,0.3,3.8,0.9,5.7
				c-3.4,2.1-5.1,4.6-5.1,7.2c0,2.4,1.3,4.5,4,6.3c2.7,1.8,5.9,2.7,9.7,2.7c2.2,0,4.2-0.2,6-0.6c2.3,0.8,4.7,1.2,7.2,1.2
				c3.5,0,6.1-1.9,7.9-5.7c1.8-3.7,1.8-7.1,0.1-10.4c-1.9-3.5-5.4-5.3-10.7-5.3c-0.3,0-0.5,0-0.8,0c3.5,0.2,6.3,1.1,8.3,2.8
				c1.8,1.6,2.7,3.4,2.7,5.6c0,1.7-0.6,3.2-1.7,4.5c-1.2,1.4-2.8,2.4-4.8,2.8c1.9-2,2.9-4.3,2.9-6.8c0-2.1-0.7-3.8-2.2-5.2
				c-1.6-1.5-3.6-2.2-6.2-2.2c-2.6,0-4.8,0.7-6.4,2.1c-1.5,1.3-2.2,2.8-2.2,4.5c0,2.5,1.3,4.3,4,5.4c-2.1-1.1-3.2-2.9-3.2-5.3
				c0-1.6,0.6-2.8,1.8-3.8c1.4-1.2,3.3-1.7,5.8-1.7c1.8,0,3.3,0.5,4.3,1.5c1.1,1,1.6,2.2,1.6,3.6c0,1.6-0.6,3.1-1.9,4.5
				c-1.4,1.5-3.4,2.5-6,3.1c-5.6-1.5-9.7-5.1-12.3-10.7c1.5-0.9,3.4-1.7,5.8-2.4c4.8-1.3,8.3-2.6,10.6-3.8c3.5-1.8,5.2-3.8,5.2-6
				c0-2.3-1.1-4.1-3.4-5.3C521.1,77,518.7,76.5,515.8,76.5L515.8,76.5z M504.3,94.1c-0.7-2-1.1-4-1.1-6c0-2.9,0.8-5.2,2.3-7
				c1.7-2,4.1-2.9,7.2-2.9c2.5,0,4.4,0.5,5.8,1.6c1.2,1,1.8,2.4,1.8,4c0,3.4-3.4,6.1-10.2,8C507.9,92.5,506,93.3,504.3,94.1
				L504.3,94.1z M508.9,106.3c-2.2-0.5-4-1.2-5.4-2.3c-1.4-1.1-2-2.3-2-3.7c0-1,0.4-2,1.2-2.9C504,100.8,506.1,103.8,508.9,106.3
				L508.9,106.3z"/>
		</g>
	</g>
</g>
<g id="Play-ER">
	<g>
		<g>
			<path class="st1" d="M48.2,108.4V80.3c0-6.2,0-11.2,0-15.2c0-3.9,0-7.1,0-9.5s0-4.3-0.1-5.8c-0.1-1.4-0.1-2.8-0.2-4.1
				c-0.2-2.8-0.7-4.8-1.6-6.2c-0.9-1.4-2.6-2.3-5.3-2.9c-0.6-0.2-1.5-0.3-2.6-0.4c-1.1-0.1-2.1-0.1-2.8-0.1c-0.9,0-1.3-0.3-1.3-1
				c0-0.9,0.9-1.3,2.6-1.3c1.8,0,3.7,0,5.7,0.1c2,0.1,3.8,0.1,5.6,0.2c1.8,0.1,3.2,0.1,4.5,0.2c1.2,0.1,2,0.1,2.3,0.1
				c1.8,0,4.7-0.1,8.6-0.2c3.9-0.2,7.8-0.2,11.5-0.2c5,0,9.2,0.4,12.7,1.1c3.5,0.7,6.4,1.6,8.7,2.6c2.3,1,4.2,1.9,5.4,3
				c1.3,1,2.2,1.8,2.9,2.5c1.8,1.7,3.6,4.2,5.4,7.6c1.8,3.4,2.6,7.2,2.6,11.4c0,5.6-1,10.8-3,15.5c-2,4.7-4.7,8.7-8.2,12.1
				c-3.5,3.4-7.7,5.9-12.5,7.7c-4.8,1.8-10,2.7-15.7,2.7c-0.4,0-1,0-1.7,0c-0.7,0-1.3-0.1-1.7-0.2c-0.4,0-0.8-0.1-1.2-0.2
				c-0.4-0.2-0.6-0.5-0.6-0.9c0-0.6,0.3-1,0.9-1.2c0.6-0.2,1.7-0.2,3.4-0.2c3.8,0,7.5-0.7,10.9-2c3.4-1.3,6.3-3.2,8.8-5.5
				c2.4-2.3,4.4-5.1,5.8-8.2c1.4-3.1,2.2-6.6,2.2-10.3c0-1.3-0.1-2.9-0.2-4.8s-0.5-4-1.1-6.2c-0.6-2.2-1.5-4.5-2.6-6.9
				c-1.2-2.3-2.8-4.6-5-6.7c-2.1-2.1-4.3-3.8-6.5-4.9c-2.2-1.1-4.3-1.9-6.2-2.4c-2-0.5-3.8-0.7-5.4-0.7s-2.9,0-3.8,0
				c-1.4,0-2.7,0.1-3.9,0.2c-1.2,0.2-2.2,0.4-3,0.7c-0.9,0.3-1.3,1.3-1.3,3v65.7c0,7.7,0,14.5,0.1,20.5c0.1,6,0.3,10.7,0.7,14.1
				c0.2,2.3,0.7,4.3,1.4,5.9c0.7,1.6,2.3,2.6,4.8,2.9c1.2,0.2,2.5,0.4,3.9,0.5c1.4,0.1,2.5,0.2,3.3,0.2c0.9,0,1.3,0.3,1.3,1
				c0,0.9-0.9,1.3-2.6,1.3c-2.2,0-4.5,0-6.7-0.1c-2.2-0.1-4.3-0.1-6.2-0.2c-1.9-0.1-3.4-0.1-4.6-0.2c-1.2-0.1-1.9-0.1-2.2-0.1
				c-0.1,0-0.7,0-1.9,0.1c-1.2,0.1-2.6,0.1-4.2,0.2c-1.6,0.1-3.3,0.1-5,0.2c-1.7,0.1-3.1,0.1-4.3,0.1c-1.7,0-2.6-0.4-2.6-1.3
				c0-0.6,0.4-1,1.3-1c0.7,0,1.5-0.1,2.4-0.2c0.9-0.1,1.6-0.3,2.4-0.5c1.6-0.3,2.7-1.3,3.3-2.9c0.6-1.6,1-3.6,1.4-5.9
				c0.4-3.4,0.7-8.1,0.7-14.1C48.2,122.9,48.2,116.1,48.2,108.4z"/>
		</g>
		<g>
			<path class="st1" d="M157.3,91.3v24.3c0,5,0,9.3,0.1,12.9c0.1,3.6,0.2,6.5,0.4,8.9c0.2,2.4,0.5,4.3,0.9,5.7
				c0.4,1.4,0.9,2.4,1.5,3c1.2,1.2,3.2,2,6.1,2.5c2.9,0.5,7.1,0.7,12.6,0.7c3.7,0,7.1-0.2,10-0.6c2.9-0.4,5.2-1.6,6.9-3.6
				c0.9-1.1,1.6-2.3,2.2-3.6c0.6-1.3,1-2.7,1.2-4.1c0.2-1.2,0.7-1.8,1.4-1.8c0.6,0,1,0.7,1,2.1c0,0.3-0.1,1-0.2,2.2
				c-0.1,1.1-0.3,2.3-0.5,3.7c-0.2,1.3-0.4,2.7-0.6,4.2c-0.2,1.4-0.5,2.6-0.8,3.6c-0.2,0.9-0.5,1.5-0.7,2c-0.3,0.5-0.7,0.8-1.3,1
				c-0.6,0.2-1.4,0.4-2.5,0.5c-1.1,0.1-2.6,0.2-4.5,0.2c-9.8,0-17.9-0.2-24.4-0.5c-3.2-0.1-6-0.2-8.5-0.2c-2.5-0.1-4.7-0.1-6.9-0.1
				c-0.3,0-1,0-2.1,0c-1.1,0-2.3,0.1-3.7,0.2c-1.5,0.1-2.9,0.2-4.3,0.2c-1.4,0.1-2.7,0.1-3.8,0.1c-1.5,0-2.2-0.4-2.2-1.1
				c0-0.7,0.4-1.1,1.1-1.1c0.6,0,1.4-0.1,2.2-0.2c0.8-0.1,1.5-0.3,2.2-0.5c1.4-0.3,2.3-1.1,2.6-2.3c0.4-1.2,0.7-2.8,1-4.9
				c0.4-2.8,0.7-6.7,0.7-11.8c0.1-5.1,0.1-11,0.1-17.6v-24c0-5.2,0-9.5,0-12.8c0-3.3,0-6,0-8.1c0-2.1,0-3.7-0.1-5
				c-0.1-1.2-0.1-2.4-0.2-3.4c-0.2-2.3-0.6-4.1-1.3-5.3c-0.6-1.2-2.1-1.9-4.5-2.2c-0.5-0.1-1.3-0.2-2.3-0.2c-1-0.1-1.8-0.1-2.5-0.1
				c-0.7,0-1.1-0.4-1.1-1.1c0-0.7,0.7-1.1,2.2-1.1c1.6,0,3.3,0,5.1,0.1c1.8,0.1,3.5,0.1,5,0.1c1.5,0,2.8,0,3.9,0.1
				c1.1,0.1,1.7,0.1,1.9,0.1c0.1,0,0.8,0,2.1-0.1c1.3-0.1,2.7-0.1,4.3-0.1s3.2,0,5-0.1c1.7-0.1,3.1-0.1,4.2-0.1
				c1.5,0,2.2,0.4,2.2,1.1c0,0.6-0.4,1-1.1,1c-0.5,0-1.2,0-2.1,0.1c-0.9,0.1-1.7,0.1-2.6,0.2c-2.1,0.4-3.5,1.2-4.1,2.3
				c-0.6,1.1-1,2.9-1.2,5.4c0,1.1,0,2.2-0.1,3.4c-0.1,1.2-0.1,2.9-0.1,5c0,2.1,0,4.8,0,8.1C157.3,81.8,157.3,86.1,157.3,91.3z"/>
		</g>
		<g>
			<path class="st1" d="M219.8,139.7l33.1-85c0.9-2.2,1.5-3.7,1.9-4.3c0.4-0.6,0.9-1,1.4-1c0.7,0,1.3,0.5,1.7,1.4
				c0.4,0.9,0.9,2.1,1.7,3.6c0.4,1,1.4,3.2,2.8,6.7c1.4,3.5,3.2,7.7,5.2,12.7c2,5,4.2,10.4,6.6,16.3c2.4,5.9,4.8,11.7,7.1,17.5
				c2.3,5.8,4.6,11.2,6.7,16.4c2.1,5.2,3.9,9.5,5.3,12.9c1.3,3.1,2.5,5.5,3.6,7.3c1.1,1.8,2.2,3.3,3.2,4.3c1,1.1,1.9,1.8,2.8,2.2
				c0.9,0.4,1.6,0.7,2.4,1c1.1,0.3,2.1,0.5,3,0.6c1,0.1,1.8,0.2,2.6,0.2c0.4,0,0.8,0.1,1.2,0.2c0.4,0.2,0.6,0.5,0.6,0.9
				c0,0.4-0.3,0.7-1,0.9c-0.6,0.2-1.4,0.2-2.2,0.2c-0.5,0-1.5,0-3,0c-1.4,0-3.2,0-5.3,0c-2.1,0-4.3,0-6.7-0.1
				c-2.4-0.1-4.8-0.1-7.3-0.2c-1.4-0.1-2.6-0.2-3.5-0.2c-1-0.1-1.4-0.3-1.4-0.7c0-0.3,0.1-0.5,0.2-0.6c0.2-0.1,0.4-0.2,0.7-0.4
				c0.4-0.2,0.9-0.6,1.4-1.1c0.5-0.5,0.5-1.4-0.1-2.6l-12.6-31.2c-0.3-0.5-0.7-0.8-1.3-0.8h-32.4c-0.6,0-1.1,0.4-1.4,1.1l-8,21.7
				c-1.4,3.6-2.1,6.7-2.1,9.1c0,1.4,0.5,2.3,1.5,2.9c1,0.5,2.1,0.8,3.3,0.8h1.3c1,0,1.4,0.4,1.4,1.1c0,0.7-0.7,1.1-2.1,1.1
				c-0.9,0-1.9,0-3.2-0.1c-1.3-0.1-2.6-0.1-3.8-0.2c-1.3-0.1-2.4-0.1-3.4-0.2c-1-0.1-1.7-0.1-2.2-0.1c-0.3,0-1,0-2,0.1
				c-1,0.1-2.2,0.1-3.5,0.2c-1.3,0.1-2.8,0.1-4.3,0.2c-1.5,0.1-3,0.1-4.4,0.1c-1.8,0-2.7-0.4-2.7-1.1c0-0.7,0.4-1.1,1.3-1.1
				c0.5,0,1.2,0,2.1-0.1c0.9-0.1,1.5-0.1,2.1-0.2c3.2-0.4,5.6-1.8,7.3-4C216.9,146,218.4,143.1,219.8,139.7z M240.1,111.5h28.4
				c0.4,0,0.6-0.3,0.5-1l-13.9-37.2c-0.9-2-1.7-2-2.4,0l-13.1,37.2C239.4,111.1,239.5,111.5,240.1,111.5z"/>
		</g>
		<g>
			<path class="st1" d="M339.8,131.1v-11.7c0-3.6-0.2-6.4-0.7-8.2c-0.5-1.9-1.3-3.8-2.3-5.7c-0.2-0.3-0.9-1.4-1.9-3.1
				c-1.1-1.8-2.4-3.9-4-6.5s-3.3-5.3-5.2-8.2c-1.9-2.9-3.7-5.8-5.5-8.6c-1.8-2.8-3.5-5.4-5-7.7c-1.5-2.3-2.6-4.1-3.4-5.3
				c-1.7-2.6-3.4-4.6-5-6.2c-1.6-1.6-3-2.8-4.3-3.7c-1.1-0.6-2.2-1.1-3.4-1.4c-1.2-0.3-2-0.5-2.6-0.5c-1,0-1.4-0.4-1.4-1.3
				c0-0.6,0.6-1,1.8-1c0.6,0,1.7,0,3.2,0.1c1.5,0.1,3,0.1,4.6,0.1c1.5,0,2.9,0,4.1,0.1c1.2,0.1,1.9,0.1,2.1,0.1c0.5,0,2-0.1,4.4-0.2
				c2.4-0.1,5-0.2,7.7-0.2c0.9,0,1.4,0.1,1.6,0.2c0.2,0.2,0.3,0.4,0.3,0.7c0,0.4-0.7,0.9-2.2,1.4c-1.2,0.5-1.8,1.3-1.8,2.2
				s0.2,1.9,0.6,2.7c0.4,0.9,0.8,1.7,1.4,2.6l25.6,42.3c0.4-1,1.3-2.5,2.5-4.6c1.2-2.1,2.6-4.5,4.2-7.2c1.5-2.7,3.2-5.4,5-8.3
				c1.8-2.9,3.4-5.6,5-8.2c1.5-2.6,2.9-4.9,4.1-6.9c1.2-2,2-3.3,2.4-4.1c0.9-1.5,1.5-2.8,1.8-4c0.4-1.2,0.6-2.2,0.6-3
				c0-1.9-0.7-3.1-2.2-3.5c-1.4-0.3-2.1-0.9-2.1-1.6c0-0.5,0.7-0.8,2.2-0.8c1.8,0,3.8,0.1,5.8,0.2c2.1,0.1,3.4,0.2,3.9,0.2
				c0.2,0,0.9,0,2.2-0.1c1.2-0.1,2.6-0.1,4.1-0.1c1.5,0,3,0,4.4-0.1c1.4-0.1,2.5-0.1,3.1-0.1c1.2,0,1.8,0.3,1.8,0.8
				c0,0.3-0.2,0.6-0.5,1c-0.3,0.3-0.7,0.5-1.3,0.5c-0.9,0-1.9,0.1-3,0.4c-1.2,0.3-2.3,0.7-3.5,1.4c-1.4,0.9-2.5,1.7-3.4,2.6
				c-0.9,0.9-2.1,2.3-3.6,4.1c-0.7,1-1.9,2.5-3.4,4.7c-1.5,2.2-3.3,4.7-5.1,7.6c-1.9,2.9-3.8,5.9-5.8,9.1c-2,3.2-3.9,6.3-5.7,9.2
				c-1.8,2.9-3.3,5.5-4.6,7.7c-1.3,2.2-2.2,3.8-2.6,4.8c-1.2,2.5-1.8,4.8-1.8,6.9c0,2.2,0,4.4,0,6.6v11.7c0,1.2,0,3,0.1,5.6
				c0.1,2.6,0.2,5.2,0.4,8c0.2,2,0.6,3.6,1.3,4.9c0.6,1.2,2,2,4.2,2.3c1,0.2,2.1,0.4,3.4,0.5c1.3,0.1,2.3,0.2,3,0.2
				c0.7,0,1.1,0.4,1.1,1.1c0,0.7-0.7,1.1-2.2,1.1c-1.9,0-3.9,0-5.9-0.1c-2-0.1-3.9-0.1-5.6-0.2c-1.7-0.1-3.1-0.1-4.2-0.2
				c-1.1-0.1-1.8-0.1-2-0.1c-0.2,0-0.8,0-1.8,0.1c-1,0.1-2.2,0.1-3.7,0.2c-1.4,0.1-2.9,0.1-4.4,0.2c-1.5,0.1-2.8,0.1-3.8,0.1
				c-1.5,0-2.2-0.4-2.2-1.1c0-0.7,0.4-1.1,1.1-1.1c0.6,0,1.3-0.1,2.1-0.2c0.7-0.1,1.4-0.3,2.1-0.5c1.5-0.3,2.5-1.1,3-2.3
				c0.5-1.2,0.9-2.8,1.1-4.9c0.2-2.8,0.3-5.4,0.3-8C339.8,134.1,339.8,132.3,339.8,131.1z"/>
		</g>
		<g>
			<path class="st1" d="M383.6,107.6h22.3c0.8,0,1.4,0.1,1.9,0.2c0.5,0.1,0.8,0.4,0.8,0.7c0,0.5-0.3,0.9-1,1.1
				c-0.7,0.2-1.4,0.3-2.1,0.4c-0.4,0.1-1.2,0.2-2.2,0.3c-1.1,0.1-2.3,0.3-3.7,0.5c-1.4,0.2-2.9,0.4-4.4,0.7
				c-1.6,0.2-3.1,0.5-4.5,0.7c-1.4,0.2-2.7,0.4-3.9,0.6c-1.2,0.2-2,0.4-2.4,0.5c-0.8,0.2-1.6,0.5-2.3,0.8c-0.7,0.3-1.1,0.5-1.4,0.5
				c-0.5,0-0.6-0.4-0.4-1.3l1.3-5c0.1-0.3,0.3-0.5,0.5-0.6C382.4,107.6,382.9,107.6,383.6,107.6z"/>
		</g>
		<g>
			<path class="st1" d="M486.6,155.7c-6,0-11.3-0.1-15.7-0.2c-4.4-0.1-8.2-0.2-11.3-0.3c-3.1-0.2-5.7-0.3-7.7-0.4
				c-2-0.1-3.6-0.1-4.8-0.1h-2.1c-1.2,0-2.6,0.1-4.3,0.2c-1.6,0-3.3,0.1-5,0.2c-1.8,0.1-3.2,0.2-4.3,0.2c-2.5,0-3.1-1-3.1-1.8
				c0-0.4,0.2-1.5,1.8-1.5c0.7,0,1.5-0.1,2.3-0.2c0.8-0.1,1.6-0.3,2.3-0.5c1.5-0.3,2.4-1.1,2.9-2.6c0.6-1.6,1-3.5,1.3-5.8
				c0.4-3.4,0.7-8.1,0.7-14.1c0.1-6.1,0.1-13,0.1-20.5V55.6c0-2.4,0-4.3-0.1-5.7c-0.1-1.4-0.1-2.8-0.2-4.1c-0.2-2.7-0.7-4.7-1.5-6
				c-0.8-1.3-2.4-2.1-4.9-2.6c-0.6-0.2-1.5-0.3-2.6-0.4c-1.1-0.1-2-0.1-2.8-0.1c-1.6,0-1.8-1-1.8-1.5c0-0.8,0.5-1.8,3.1-1.8h5.8
				c2,0,3.9,0.1,5.8,0.2l6.5,0.3l17.3,0c4.5,0,8.4,0,12.1-0.1c3.8-0.1,6.2-0.1,7.1-0.1c3-0.2,5.3-0.5,6.8-0.8
				c0.4-0.1,0.7-0.2,0.9-0.4c0.4-0.3,0.9-0.4,1.4-0.4c0.5,0,1.1,0.3,1.1,1.9c0,0.6-0.2,1.4-0.5,2.6c-0.3,1.1-0.6,2.8-0.8,4.9
				c0,0.4,0,1.1-0.1,2.1c-0.1,1-0.1,2-0.2,3.1c-0.1,1.1-0.2,2.2-0.2,3.2c-0.1,1.1-0.1,1.8-0.3,2.3c-0.1,0.5-0.3,0.9-0.4,1.3
				c-0.3,0.7-0.9,0.9-1.2,0.9c-0.7,0-1.8-0.3-1.8-2.6c0-0.5-0.1-1.3-0.2-2.5c-0.1-1.1-0.4-2.1-0.8-3c-0.5-1.2-1.4-2.2-2.7-3.1
				c-1.3-0.9-4.1-1.6-8.3-2.1c-0.6-0.1-2.1-0.2-4.3-0.2l-7-0.2c-2.5-0.1-4.8-0.1-6.8-0.1h-3.8c-0.1,0-0.5,0-0.5,1.1v44.1
				c0,1.1,0.3,1.1,0.5,1.1h12.1c2.9,0,5.6,0,8.1-0.1c2.5-0.1,4.3-0.1,5.2-0.2c1.9-0.2,3.4-0.4,4.6-0.6c1.1-0.2,1.9-0.7,2.6-1.4
				c1.7-2,2.3-2.2,2.8-2.2c0.4,0,1.3,0.2,1.3,1.8c0,0.6-0.2,1.6-0.5,3c-0.3,1.4-0.6,3.4-0.8,6c-0.1,0.9-0.2,1.8-0.2,2.8l-0.2,3
				c-0.1,1-0.1,1.9-0.2,2.7c-0.1,0.8-0.1,1.3-0.1,1.6c0,0.7-0.1,1.3-0.2,2.1c-0.2,1.3-1,1.5-1.5,1.5c-0.5,0-1.6-0.2-1.6-1.9
				c0-0.8,0-1.6-0.1-2.4c-0.1-0.8-0.2-1.7-0.5-2.7c-0.3-1.1-1-2.2-2-3.2c-1-1-3-1.7-5.9-2c-1.1-0.1-2.7-0.2-5-0.3
				c-2.3-0.1-4.7-0.2-7-0.2c-2.4-0.1-4.6-0.1-6.7-0.2c-2.1-0.1-3.4-0.1-4.1-0.1c-0.5,0-0.6,0.1-0.6,0.6v41.3
				c0.1,2.7,0.4,4.9,0.9,6.6c0.4,1.6,1.3,2.8,2.5,3.7c1.3,0.9,3,1.5,5.3,1.8c2.3,0.3,5.4,0.5,9.4,0.5c2.1,0,4.7-0.1,7.6-0.2
				c2.9-0.2,5.4-0.7,7.5-1.5c2-0.8,3.5-2.1,4.5-3.7c1-1.7,1.8-4.2,2.3-7.4c0.1-0.7,0.6-2.8,1.9-2.8c0.8,0,1.3,0.5,1.4,1.2
				c0.1,0.6,0.1,1.1,0.1,1.6c0,0.3-0.1,1.2-0.2,2.5c-0.2,1.3-0.3,2.8-0.6,4.5l-0.6,4.9c-0.2,1.6-0.4,2.9-0.7,3.8
				c-0.3,1.2-0.7,2-1,2.6c-0.4,0.6-0.9,1.1-1.7,1.4c-0.7,0.3-1.6,0.5-2.6,0.5C489.5,155.7,488.2,155.7,486.6,155.7z"/>
			<path class="st7" d="M492.9,32.7c0.4,0,0.6,0.5,0.6,1.4c0,0.5-0.2,1.4-0.5,2.5s-0.6,2.8-0.8,5c0,0.4,0,1.1-0.1,2.1
				c-0.1,1-0.1,2-0.2,3.1c-0.1,1.1-0.2,2.2-0.2,3.2c-0.1,1-0.1,1.7-0.2,2.2c-0.1,0.4-0.2,0.8-0.4,1.2c-0.2,0.4-0.4,0.6-0.7,0.6
				c-0.9,0-1.3-0.7-1.3-2.1c0-0.5-0.1-1.4-0.2-2.6c-0.1-1.2-0.4-2.2-0.8-3.2c-0.5-1.3-1.5-2.4-2.9-3.3c-1.4-0.9-4.2-1.6-8.5-2.2
				c-0.6-0.1-2.1-0.2-4.3-0.2c-2.2-0.1-4.6-0.1-7-0.2c-2.5-0.1-4.7-0.1-6.8-0.1c-2.1,0-3.3,0-3.8,0c-0.6,0-1,0.5-1,1.6v44.1
				c0,1.1,0.3,1.6,1,1.6c0.5,0,2,0,4.3,0c2.3,0,4.9,0,7.7,0c2.8,0,5.5,0,8.1-0.1c2.6-0.1,4.3-0.1,5.3-0.2c1.9-0.2,3.5-0.4,4.6-0.6
				c1.2-0.2,2.1-0.7,2.9-1.6c1.2-1.4,2-2.1,2.4-2.1c0.5,0,0.8,0.4,0.8,1.3c0,0.5-0.2,1.5-0.5,2.9c-0.3,1.4-0.6,3.4-0.8,6.1
				c-0.1,0.9-0.2,1.8-0.2,2.8c-0.1,1-0.1,2-0.2,3c-0.1,1-0.1,1.9-0.2,2.7c-0.1,0.8-0.1,1.4-0.1,1.7c0,0.6-0.1,1.3-0.2,2
				c-0.1,0.7-0.4,1-1,1c-0.7,0-1.1-0.5-1.1-1.4c0-0.9,0-1.7-0.1-2.5c-0.1-0.8-0.2-1.7-0.6-2.8c-0.3-1.2-1-2.3-2.1-3.4
				c-1.1-1.1-3.1-1.8-6.2-2.2c-1.1-0.1-2.7-0.2-5-0.3c-2.3-0.1-4.6-0.2-7-0.2c-2.4-0.1-4.6-0.1-6.7-0.2c-2.1-0.1-3.4-0.1-4.1-0.1
				c-0.7,0-1.1,0.4-1.1,1.1v14c0,1.4,0,3.4,0,6.1c0,2.7,0,5.4,0,8.3c0,2.9,0,5.5,0,8c0,2.4,0,4.1,0,4.9c0.1,2.8,0.4,5,0.9,6.7
				c0.5,1.7,1.4,3,2.7,4c1.3,1,3.2,1.6,5.5,1.9c2.3,0.3,5.5,0.5,9.4,0.5c2.1,0,4.7-0.1,7.7-0.2c3-0.2,5.5-0.7,7.7-1.5
				c2.1-0.9,3.7-2.2,4.8-3.9c1.1-1.8,1.9-4.3,2.4-7.6c0.3-1.6,0.8-2.4,1.4-2.4c0.5,0,0.8,0.3,0.9,0.8c0.1,0.5,0.1,1.1,0.1,1.6
				c0,0.3-0.1,1.1-0.2,2.5c-0.2,1.3-0.3,2.8-0.6,4.5c-0.2,1.7-0.4,3.3-0.6,4.9c-0.2,1.6-0.4,2.8-0.6,3.7c-0.3,1.1-0.6,1.9-1,2.5
				c-0.3,0.5-0.8,1-1.4,1.2c-0.6,0.3-1.4,0.4-2.4,0.5c-1,0.1-2.2,0.1-3.8,0.1c-6.1,0-11.3-0.1-15.7-0.2c-4.4-0.1-8.2-0.2-11.3-0.3
				c-3.1-0.2-5.6-0.3-7.7-0.4c-2-0.1-3.6-0.1-4.8-0.1c-0.2,0-0.9,0-2.1,0c-1.2,0-2.6,0.1-4.3,0.2c-1.6,0-3.3,0.1-5,0.2
				c-1.7,0.1-3.1,0.2-4.3,0.2c-1.7,0-2.6-0.4-2.6-1.3c0-0.6,0.4-1,1.3-1c0.7,0,1.5-0.1,2.4-0.2c0.9-0.1,1.6-0.3,2.4-0.5
				c1.6-0.3,2.7-1.3,3.3-2.9c0.6-1.6,1-3.6,1.4-5.9c0.4-3.4,0.7-8.1,0.7-14.1c0.1-6,0.1-12.9,0.1-20.5V80.3c0-6.2,0-11.2,0-15.2
				c0-3.9,0-7.1,0-9.5c0-2.4,0-4.3-0.1-5.8c-0.1-1.4-0.1-2.8-0.2-4.1c-0.2-2.8-0.7-4.8-1.6-6.2c-0.9-1.4-2.6-2.3-5.3-2.9
				c-0.6-0.2-1.5-0.3-2.6-0.4c-1.1-0.1-2.1-0.1-2.8-0.1c-0.9,0-1.3-0.3-1.3-1c0-0.9,0.9-1.3,2.6-1.3c1.8,0,3.7,0,5.8,0
				c2,0,3.9,0.1,5.8,0.2l6.5,0.3c0.3,0,2.2,0,5.7,0c3.5,0,7.3,0,11.7,0c4.3,0,8.4,0,12.1-0.1c3.8-0.1,6.2-0.1,7.1-0.1
				c3.1-0.2,5.4-0.5,6.9-0.8c0.4-0.1,0.8-0.3,1.1-0.5C492.1,32.8,492.4,32.7,492.9,32.7 M492.9,31.7c-0.6,0-1.2,0.2-1.7,0.5
				c-0.2,0.2-0.5,0.3-0.8,0.3c-1.4,0.3-3.7,0.6-6.7,0.8c-1,0-3.2,0-7.1,0.1c-3.7,0.1-7.7,0.1-12.1,0.1h-11.7h-5.7l-6.5-0.3
				c-1.8-0.1-3.8-0.2-5.8-0.2h-5.8c-3.1,0-3.6,1.4-3.6,2.3c0,0.9,0.6,2,2.3,2c0.7,0,1.6,0,2.7,0.1c1,0.1,1.8,0.2,2.4,0.3l0.1,0
				l0.1,0c2.4,0.5,3.9,1.3,4.6,2.4c0.8,1.2,1.2,3.2,1.5,5.8c0.1,1.3,0.2,2.6,0.2,4c0.1,1.4,0.1,3.4,0.1,5.7v9.5v15.2v28.1
				c0,7.6,0,14.5-0.1,20.5c-0.1,5.9-0.3,10.7-0.7,14c-0.3,2.2-0.7,4.2-1.3,5.7c-0.5,1.3-1.3,2-2.5,2.2l0,0l0,0
				c-0.7,0.2-1.4,0.4-2.2,0.4c-0.8,0.1-1.6,0.2-2.3,0.2c-1.7,0-2.3,1-2.3,2c0,0.9,0.5,2.3,3.6,2.3c1.2,0,2.6-0.1,4.4-0.2
				c1.7-0.1,3.3-0.2,4.9-0.2h0l0,0c1.7-0.1,3.1-0.2,4.3-0.2h2.1c1.2,0,2.8,0,4.8,0.1c2,0.1,4.6,0.2,7.6,0.4c3.2,0.1,7,0.2,11.3,0.3
				c4.5,0.1,9.8,0.2,15.8,0.2c1.6,0,2.9,0,3.9-0.1c1.1-0.1,2-0.3,2.7-0.6c0.8-0.4,1.5-0.9,1.9-1.6c0.4-0.6,0.7-1.5,1.1-2.7
				c0.2-1,0.4-2.2,0.7-3.9c0.2-1.6,0.4-3.2,0.6-4.9c0.2-1.7,0.4-3.1,0.6-4.5c0.2-1.8,0.2-2.4,0.2-2.6c0-0.6,0-1.1-0.1-1.7
				c-0.1-1.1-0.8-1.7-1.9-1.7c-1.8,0-2.3,2.4-2.4,3.2c-0.5,3.2-1.3,5.6-2.3,7.3c-1,1.6-2.4,2.7-4.3,3.5c-2,0.8-4.5,1.3-7.4,1.4
				c-3,0.2-5.5,0.2-7.6,0.2c-3.9,0-7-0.2-9.3-0.5c-2.2-0.3-3.9-0.9-5.1-1.7c-1.2-0.8-1.9-2-2.3-3.4c-0.5-1.6-0.7-3.8-0.8-6.5l0-4.9
				v-8v-8.3v-6.1v-14c0,0,0-0.1,0-0.1c0,0,0.1,0,0.1,0c0.6,0,1.9,0,4,0.1c2.1,0.1,4.3,0.1,6.7,0.2c2.4,0.1,4.7,0.1,7,0.2
				c2.2,0.1,3.9,0.2,5,0.3c3.5,0.4,5,1.2,5.6,1.9c0.9,1,1.6,2,1.8,3c0.3,1,0.5,1.9,0.5,2.6c0.1,0.8,0.1,1.6,0.1,2.4
				c0,1.8,1.1,2.4,2.1,2.4c0.4,0,1.7-0.1,1.9-1.9c0.1-0.8,0.2-1.5,0.2-2.1c0-0.2,0-0.7,0.1-1.6c0.1-0.8,0.1-1.7,0.2-2.7
				c0.1-1,0.1-2,0.2-3c0.1-1,0.1-1.9,0.2-2.7c0.2-2.6,0.5-4.6,0.8-6c0.3-1.5,0.5-2.5,0.5-3.1c0-2.2-1.5-2.3-1.8-2.3
				c-0.7,0-1.5,0.4-3.2,2.4c-0.6,0.7-1.3,1.1-2.3,1.3c-1.1,0.2-2.7,0.4-4.6,0.6c-0.9,0.1-2.7,0.2-5.2,0.2c-2.5,0.1-5.1,0.1-8,0.1
				h-7.7H455c0-0.1-0.1-0.3-0.1-0.6V41.8c0-0.3,0-0.5,0.1-0.6l3.6,0c2,0,4.3,0,6.8,0.1l1.3,0c2,0,3.9,0.1,5.7,0.1
				c2.7,0.1,3.8,0.2,4.2,0.2c5.1,0.6,7.2,1.4,8.1,2c1.2,0.8,2,1.7,2.5,2.8c0.4,0.9,0.6,1.8,0.7,2.9c0.1,1.2,0.2,2,0.2,2.5
				c0,2.8,1.6,3.1,2.3,3.1c0.7,0,1.3-0.4,1.6-1.2c0.2-0.4,0.3-0.9,0.4-1.3c0.1-0.5,0.2-1.3,0.3-2.3c0.1-1,0.1-2.1,0.2-3.2
				c0.1-1.1,0.2-2.2,0.2-3.2c0.1-1,0.1-1.6,0.1-2.1c0.2-2.1,0.5-3.8,0.8-4.8c0.3-1.2,0.5-2.1,0.5-2.8
				C494.5,31.9,493.4,31.7,492.9,31.7L492.9,31.7z"/>
		</g>
		<g>
			<path class="st1" d="M629.6,155.2c-4.5,0-8-0.2-10.5-0.6c-2.5-0.4-4.8-1.3-6.9-2.5c-3.4-1.8-6.8-4.7-10-8.7
				c-3.2-3.9-7.1-8.9-11.7-15c-1.7-2.3-3.5-4.6-5.1-6.9c-1.7-2.3-3.3-4.6-4.9-6.7c-1.6-2.1-3-4.1-4.3-5.8c-1.4-1.8-2.4-3.2-3.1-4.2
				c-0.5-0.5-1.1-0.7-1.7-0.7l-19.7-0.3c-0.3,0-0.6,0.1-0.6,0.8v3.8c0,8,0,14.7,0.1,20.5c0.1,6,0.3,10.7,0.7,14.1
				c0.2,2.3,0.7,4.2,1.4,5.8c0.7,1.4,2.1,2.3,4.4,2.6c1.2,0.2,2.5,0.4,3.9,0.5c1.4,0.1,2.5,0.2,3.2,0.2c1.6,0,1.8,1,1.8,1.5
				c0,0.8-0.5,1.8-3.1,1.8c-2.2,0-4.5,0-6.7-0.1c-2.2-0.1-4.3-0.1-6.2-0.2c-1.9-0.1-3.4-0.1-4.6-0.2c-1.2-0.1-1.9-0.1-2.1-0.1
				c-2.2,0.1-4.1,0.2-5.7,0.2l-5,0.2c-1.7,0.1-3.2,0.1-4.3,0.1c-2.5,0-3.1-1-3.1-1.8c0-0.4,0.2-1.5,1.8-1.5c0.7,0,1.5-0.1,2.3-0.2
				c0.8-0.1,1.6-0.3,2.3-0.5c1.5-0.3,2.4-1.1,2.9-2.6c0.6-1.6,1-3.5,1.3-5.8c0.4-3.4,0.7-8.1,0.7-14.1c0.1-6.1,0.1-13,0.1-20.5V55.6
				c0-2.4,0-4.3-0.1-5.7c-0.1-1.4-0.1-2.8-0.2-4.1c-0.2-2.7-0.7-4.7-1.5-6c-0.8-1.3-2.4-2.1-4.9-2.6c-0.6-0.2-1.5-0.3-2.6-0.4
				c-1.1-0.1-2-0.1-2.8-0.1c-1.6,0-1.8-1-1.8-1.5c0-0.8,0.5-1.8,3.1-1.8c1.8,0,3.7,0,5.8,0.1c2,0.1,3.9,0.1,5.7,0.2
				c1.8,0.1,3.3,0.1,4.5,0.2c1.2,0.1,1.9,0.1,2.1,0.1c0.4,0,1.4,0,2.9-0.1c1.5-0.1,3.3-0.1,5.3-0.2c2-0.1,3.9-0.1,5.8-0.2
				c1.9-0.1,3.5-0.1,4.8-0.1c5.1,0,10.3,0.4,15.3,1.2c5.1,0.8,9.9,2.8,14.2,5.9c1,0.8,2.1,1.8,3.4,3.2c1.3,1.4,2.5,3,3.7,4.8
				c1.1,1.8,2.1,4,2.9,6.3c0.8,2.4,1.2,5,1.2,7.8c0,6-1.5,12.1-4.4,18.2c-2.8,5.9-7.8,12.3-14.8,18.8l17.8,22.6
				c5.4,6.9,10.5,12.9,15.1,17.9c4.3,4.5,8.1,7.5,11.3,8.8c3.2,1.4,5.9,2.2,7.9,2.5c1.4,0.2,2.7,0.3,3.8,0.4
				c1.1,0.1,1.8,0.1,2.4,0.1c1.7,0,1.9,1,1.9,1.5c0,0.8-0.4,1.3-1.2,1.5c-0.6,0.2-1.6,0.3-3.2,0.3H629.6z M562.7,39.6
				c-2.4,0-4.6,0.1-6.5,0.3c-1.9,0.2-3.3,0.4-4.1,0.6c-0.6,0.2-0.9,0.7-0.9,1.4v52.2c0,0.7,0.3,1.1,0.9,1.5c1.1,0.7,3.3,1.3,6.5,1.8
				c3.2,0.5,6.6,0.7,10.1,0.7c1.9,0,3.9-0.2,6-0.6c2-0.4,4-1.2,5.7-2.4c2.7-1.9,5-4.9,6.8-9c1.8-4.1,2.8-9.2,2.8-15.2
				c0-9.8-2.4-17.6-7.2-23.2C577.8,42.4,571.1,39.6,562.7,39.6z"/>
			<path class="st7" d="M563.5,34c5.1,0,10.2,0.4,15.3,1.2c5.1,0.8,9.7,2.7,14,5.8c1,0.7,2.1,1.8,3.4,3.1c1.3,1.3,2.5,2.9,3.6,4.7
				c1.1,1.8,2.1,3.9,2.9,6.2c0.8,2.3,1.2,4.9,1.2,7.7c0,6-1.4,12-4.3,18c-2.9,6-7.9,12.3-15,18.9c6.6,8.4,12.6,16.1,18.1,23
				c5.4,6.9,10.5,12.9,15.2,17.9c4.4,4.6,8.2,7.6,11.5,8.9c3.3,1.4,6,2.2,8,2.6c1.5,0.2,2.8,0.3,3.8,0.4c1.1,0.1,1.9,0.1,2.4,0.1
				c1,0,1.4,0.3,1.4,1c0,0.5-0.3,0.9-0.8,1c-0.5,0.2-1.5,0.2-3,0.2h-11.3c-4.5,0-7.9-0.2-10.4-0.6c-2.5-0.4-4.7-1.2-6.7-2.4
				c-3.4-1.8-6.7-4.7-9.9-8.5c-3.2-3.9-7.1-8.9-11.7-14.9c-1.7-2.2-3.4-4.5-5.1-6.9c-1.7-2.3-3.3-4.6-4.9-6.7
				c-1.5-2.1-3-4.1-4.3-5.8c-1.3-1.8-2.4-3.2-3.1-4.2c-0.6-0.6-1.3-1-2.1-1l-19.6-0.3c-0.7,0-1.1,0.4-1.1,1.3v3.8
				c0,7.7,0,14.5,0.1,20.5c0.1,6,0.3,10.7,0.7,14.1c0.2,2.3,0.7,4.3,1.4,5.9c0.7,1.6,2.3,2.6,4.8,2.9c1.2,0.2,2.5,0.4,3.9,0.5
				c1.4,0.1,2.5,0.2,3.3,0.2c0.9,0,1.3,0.3,1.3,1c0,0.9-0.9,1.3-2.6,1.3c-2.2,0-4.5,0-6.7-0.1c-2.2-0.1-4.3-0.1-6.2-0.2
				c-1.9-0.1-3.4-0.1-4.6-0.2c-1.2-0.1-1.9-0.1-2.2-0.1c-2.2,0.1-4.2,0.2-5.8,0.2c-1.6,0.1-3.3,0.1-5,0.2c-1.7,0.1-3.1,0.1-4.3,0.1
				c-1.7,0-2.6-0.4-2.6-1.3c0-0.6,0.4-1,1.3-1c0.7,0,1.5-0.1,2.4-0.2c0.9-0.1,1.6-0.3,2.4-0.5c1.6-0.3,2.7-1.3,3.3-2.9
				c0.6-1.6,1-3.6,1.4-5.9c0.4-3.4,0.7-8.1,0.7-14.1c0.1-6,0.1-12.9,0.1-20.5V80.3c0-6.2,0-11.2,0-15.2c0-3.9,0-7.1,0-9.5
				c0-2.4,0-4.3-0.1-5.8c-0.1-1.4-0.1-2.8-0.2-4.1c-0.2-2.8-0.7-4.8-1.6-6.2c-0.9-1.4-2.6-2.3-5.3-2.9c-0.6-0.2-1.5-0.3-2.6-0.4
				c-1.1-0.1-2.1-0.1-2.8-0.1c-0.9,0-1.3-0.3-1.3-1c0-0.9,0.9-1.3,2.6-1.3c1.8,0,3.7,0,5.8,0.1c2,0.1,3.9,0.1,5.7,0.2
				c1.8,0.1,3.2,0.1,4.5,0.2c1.2,0.1,1.9,0.1,2.2,0.1c0.4,0,1.4,0,3-0.1c1.5-0.1,3.3-0.1,5.3-0.2c2-0.1,3.9-0.1,5.8-0.2
				C560.6,34,562.2,34,563.5,34 M568.6,98.7c1.9,0,3.9-0.2,6.1-0.6c2.1-0.4,4.1-1.2,5.9-2.5c2.8-1.9,5.1-5,6.9-9.2
				c1.9-4.2,2.8-9.3,2.8-15.4c0-10-2.5-17.8-7.3-23.5c-4.9-5.6-11.7-8.5-20.3-8.5c-2.5,0-4.6,0.1-6.5,0.3c-1.9,0.2-3.3,0.4-4.2,0.6
				c-0.9,0.3-1.3,1-1.3,1.9v52.2c0,0.9,0.4,1.5,1.1,1.9c1.2,0.7,3.4,1.4,6.6,1.8C561.7,98.4,565.1,98.7,568.6,98.7 M563.5,33
				c-1.3,0-2.8,0-4.8,0.1c-1.9,0.1-3.9,0.1-5.8,0.2c-2,0.1-3.7,0.1-5.3,0.2c-1.9,0.1-2.7,0.1-2.9,0.1c-0.2,0-0.8,0-2.1-0.1
				c-1.2-0.1-2.7-0.1-4.5-0.2c-1.8-0.1-3.7-0.1-5.7-0.2c-2.1-0.1-4-0.1-5.8-0.1c-3.1,0-3.6,1.4-3.6,2.3c0,0.9,0.6,2,2.3,2
				c0.7,0,1.6,0,2.7,0.1c1,0.1,1.8,0.2,2.4,0.3l0.1,0l0.1,0c2.4,0.5,3.9,1.3,4.6,2.4c0.8,1.2,1.2,3.2,1.5,5.8c0.1,1.3,0.2,2.6,0.2,4
				c0.1,1.4,0.1,3.4,0.1,5.7v9.5v15.2v28.1c0,7.6,0,14.5-0.1,20.5c-0.1,5.9-0.3,10.7-0.7,14c-0.3,2.2-0.7,4.2-1.3,5.7
				c-0.5,1.3-1.3,2-2.5,2.2l0,0l0,0c-0.7,0.2-1.4,0.4-2.2,0.4c-0.8,0.1-1.6,0.2-2.3,0.2c-1.7,0-2.3,1-2.3,2c0,0.9,0.5,2.3,3.6,2.3
				c1.2,0,2.6,0,4.3-0.1l0.8,0l4.1-0.1c1.6-0.1,3.5-0.1,5.8-0.2c0,0,0.4,0,2.1,0.1c1.2,0.1,2.8,0.1,4.6,0.2c1.9,0.1,3.9,0.1,6.2,0.2
				c2.3,0.1,4.5,0.1,6.7,0.1c3.1,0,3.6-1.4,3.6-2.3c0-0.9-0.6-2-2.3-2c-0.7,0-1.8-0.1-3.2-0.2c-1.4-0.1-2.7-0.3-3.8-0.5l0,0l0,0
				c-2.1-0.3-3.4-1-4-2.3c-0.7-1.5-1.1-3.4-1.3-5.6c-0.4-3.4-0.7-8.1-0.7-14.1c-0.1-5.9-0.1-12.6-0.1-20.5v-3.8c0-0.1,0-0.2,0-0.3
				c0,0,0.1,0,0.1,0l19.6,0.3c0.5,0,0.9,0.2,1.3,0.6c0.7,1.1,1.8,2.4,3.1,4.2c1.3,1.7,2.7,3.7,4.3,5.8c1.5,2.1,3.2,4.4,4.9,6.7
				c1.7,2.3,3.4,4.6,5.1,6.9c4.6,6,8.5,11.1,11.7,15c3.3,4,6.7,6.9,10.2,8.8c2.1,1.2,4.5,2.1,7,2.5c2.5,0.4,6.1,0.7,10.6,0.7H641
				c1.6,0,2.7-0.1,3.3-0.3c1-0.3,1.5-1,1.5-2c0-0.5-0.2-2-2.4-2c-0.5,0-1.3,0-2.3-0.1c-1-0.1-2.3-0.2-3.7-0.4
				c-1.9-0.3-4.5-1.1-7.7-2.5c-3.2-1.3-6.9-4.3-11.2-8.7c-4.6-5-9.7-10.9-15.1-17.8l-6-7.7l-11.5-14.6c6.8-6.4,11.7-12.7,14.6-18.6
				c2.9-6.1,4.4-12.3,4.4-18.4c0-2.9-0.4-5.6-1.3-8c-0.8-2.4-1.8-4.6-3-6.4c-1.1-1.9-2.4-3.5-3.7-4.9c-1.3-1.4-2.5-2.4-3.5-3.2
				c-4.4-3.2-9.2-5.2-14.4-6C573.8,33.4,568.6,33,563.5,33L563.5,33z M552.3,41c0.8-0.2,2.1-0.4,4-0.6c1.9-0.2,4-0.3,6.4-0.3
				c8.3,0,14.9,2.7,19.5,8.1c4.7,5.4,7.1,13.1,7.1,22.8c0,5.9-0.9,10.9-2.7,15c-1.8,4-4,7-6.6,8.8c-1.7,1.2-3.5,2-5.5,2.3
				c-2.1,0.4-4,0.5-5.9,0.5c-3.4,0-6.8-0.2-10-0.7c-3.9-0.6-5.5-1.2-6.2-1.7l0,0l0,0c-0.4-0.2-0.6-0.6-0.6-1V42
				C551.7,41.4,551.9,41.1,552.3,41L552.3,41z"/>
		</g>
	</g>
</g>
</svg>
